solid OpenSCAD_Model
  facet normal -1 0 0
    outer loop
      vertex 0 0 0
      vertex 0 112.25 22
      vertex 0 112.25 0
    endloop
  endfacet
  facet normal -1 -0 0
    outer loop
      vertex 0 112.25 22
      vertex 0 0 0
      vertex 0 0 22
    endloop
  endfacet
  facet normal 0 0 1
    outer loop
      vertex 112.25 112.25 22
      vertex 110.25 110.25 22
      vertex 112.25 0 22
    endloop
  endfacet
  facet normal 0 0 1
    outer loop
      vertex 112.25 112.25 22
      vertex 2 110.25 22
      vertex 110.25 110.25 22
    endloop
  endfacet
  facet normal 0 0 1
    outer loop
      vertex 2 110.25 22
      vertex 0 112.25 22
      vertex 2 2 22
    endloop
  endfacet
  facet normal -0 0 1
    outer loop
      vertex 0 112.25 22
      vertex 2 110.25 22
      vertex 112.25 112.25 22
    endloop
  endfacet
  facet normal -0 0 1
    outer loop
      vertex 110.25 2 22
      vertex 112.25 0 22
      vertex 110.25 110.25 22
    endloop
  endfacet
  facet normal -0 0 1
    outer loop
      vertex 2 2 22
      vertex 112.25 0 22
      vertex 110.25 2 22
    endloop
  endfacet
  facet normal 0 0 1
    outer loop
      vertex 2 2 22
      vertex 0 0 22
      vertex 112.25 0 22
    endloop
  endfacet
  facet normal 0 0 1
    outer loop
      vertex 0 0 22
      vertex 2 2 22
      vertex 0 112.25 22
    endloop
  endfacet
  facet normal 1 -0 0
    outer loop
      vertex 112.25 0 22
      vertex 112.25 112.25 0
      vertex 112.25 112.25 22
    endloop
  endfacet
  facet normal 1 0 0
    outer loop
      vertex 112.25 112.25 0
      vertex 112.25 0 22
      vertex 112.25 0 0
    endloop
  endfacet
  facet normal 0 1 -0
    outer loop
      vertex 112.25 112.25 0
      vertex 0 112.25 22
      vertex 112.25 112.25 22
    endloop
  endfacet
  facet normal 0 1 0
    outer loop
      vertex 0 112.25 22
      vertex 112.25 112.25 0
      vertex 0 112.25 0
    endloop
  endfacet
  facet normal 0 0 -1
    outer loop
      vertex 0 0 0
      vertex 112.25 112.25 0
      vertex 112.25 0 0
    endloop
  endfacet
  facet normal -0 0 -1
    outer loop
      vertex 112.25 112.25 0
      vertex 0 0 0
      vertex 0 112.25 0
    endloop
  endfacet
  facet normal 0 -1 0
    outer loop
      vertex 0 0 0
      vertex 112.25 0 22
      vertex 0 0 22
    endloop
  endfacet
  facet normal 0 -1 -0
    outer loop
      vertex 112.25 0 22
      vertex 0 0 0
      vertex 112.25 0 0
    endloop
  endfacet
  facet normal 1 -0 0
    outer loop
      vertex 2 2 22
      vertex 2 110.25 2
      vertex 2 110.25 22
    endloop
  endfacet
  facet normal 1 0 0
    outer loop
      vertex 2 110.25 2
      vertex 2 2 22
      vertex 2 2 2
    endloop
  endfacet
  facet normal -1 0 0
    outer loop
      vertex 110.25 2 2
      vertex 110.25 110.25 22
      vertex 110.25 110.25 2
    endloop
  endfacet
  facet normal -1 -0 0
    outer loop
      vertex 110.25 110.25 22
      vertex 110.25 2 2
      vertex 110.25 2 22
    endloop
  endfacet
  facet normal -0 0 1
    outer loop
      vertex 2 110.25 2
      vertex 110.25 2 2
      vertex 110.25 110.25 2
    endloop
  endfacet
  facet normal 0 0 1
    outer loop
      vertex 110.25 2 2
      vertex 2 110.25 2
      vertex 2 2 2
    endloop
  endfacet
  facet normal 0 1 -0
    outer loop
      vertex 110.25 2 2
      vertex 2 2 22
      vertex 110.25 2 22
    endloop
  endfacet
  facet normal 0 1 0
    outer loop
      vertex 2 2 22
      vertex 110.25 2 2
      vertex 2 2 2
    endloop
  endfacet
  facet normal 0 -1 0
    outer loop
      vertex 2 110.25 2
      vertex 110.25 110.25 22
      vertex 2 110.25 22
    endloop
  endfacet
  facet normal 0 -1 -0
    outer loop
      vertex 110.25 110.25 22
      vertex 2 110.25 2
      vertex 110.25 110.25 2
    endloop
  endfacet
endsolid OpenSCAD_Model
