solid OpenSCAD_Model
  facet normal -1 0 0
    outer loop
      vertex 0 0 0
      vertex 0 106.35 22
      vertex 0 106.35 0
    endloop
  endfacet
  facet normal -1 -0 0
    outer loop
      vertex 0 106.35 22
      vertex 0 0 0
      vertex 0 0 22
    endloop
  endfacet
  facet normal 0 0 1
    outer loop
      vertex 106.35 106.35 22
      vertex 104.35 104.35 22
      vertex 106.35 0 22
    endloop
  endfacet
  facet normal 0 0 1
    outer loop
      vertex 106.35 106.35 22
      vertex 2 104.35 22
      vertex 104.35 104.35 22
    endloop
  endfacet
  facet normal 0 0 1
    outer loop
      vertex 2 104.35 22
      vertex 0 106.35 22
      vertex 2 2 22
    endloop
  endfacet
  facet normal -0 0 1
    outer loop
      vertex 0 106.35 22
      vertex 2 104.35 22
      vertex 106.35 106.35 22
    endloop
  endfacet
  facet normal -0 0 1
    outer loop
      vertex 104.35 2 22
      vertex 106.35 0 22
      vertex 104.35 104.35 22
    endloop
  endfacet
  facet normal -0 0 1
    outer loop
      vertex 2 2 22
      vertex 106.35 0 22
      vertex 104.35 2 22
    endloop
  endfacet
  facet normal 0 0 1
    outer loop
      vertex 2 2 22
      vertex 0 0 22
      vertex 106.35 0 22
    endloop
  endfacet
  facet normal 0 0 1
    outer loop
      vertex 0 0 22
      vertex 2 2 22
      vertex 0 106.35 22
    endloop
  endfacet
  facet normal 1 -0 0
    outer loop
      vertex 106.35 0 22
      vertex 106.35 106.35 0
      vertex 106.35 106.35 22
    endloop
  endfacet
  facet normal 1 0 0
    outer loop
      vertex 106.35 106.35 0
      vertex 106.35 0 22
      vertex 106.35 0 0
    endloop
  endfacet
  facet normal 0 1 -0
    outer loop
      vertex 106.35 106.35 0
      vertex 0 106.35 22
      vertex 106.35 106.35 22
    endloop
  endfacet
  facet normal 0 1 0
    outer loop
      vertex 0 106.35 22
      vertex 106.35 106.35 0
      vertex 0 106.35 0
    endloop
  endfacet
  facet normal 0 0 -1
    outer loop
      vertex 0 0 0
      vertex 106.35 106.35 0
      vertex 106.35 0 0
    endloop
  endfacet
  facet normal -0 0 -1
    outer loop
      vertex 106.35 106.35 0
      vertex 0 0 0
      vertex 0 106.35 0
    endloop
  endfacet
  facet normal 0 -1 0
    outer loop
      vertex 0 0 0
      vertex 106.35 0 22
      vertex 0 0 22
    endloop
  endfacet
  facet normal 0 -1 -0
    outer loop
      vertex 106.35 0 22
      vertex 0 0 0
      vertex 106.35 0 0
    endloop
  endfacet
  facet normal 1 -0 0
    outer loop
      vertex 2 2 22
      vertex 2 104.35 2
      vertex 2 104.35 22
    endloop
  endfacet
  facet normal 1 0 0
    outer loop
      vertex 2 104.35 2
      vertex 2 2 22
      vertex 2 2 2
    endloop
  endfacet
  facet normal -1 0 0
    outer loop
      vertex 104.35 2 2
      vertex 104.35 104.35 22
      vertex 104.35 104.35 2
    endloop
  endfacet
  facet normal -1 -0 0
    outer loop
      vertex 104.35 104.35 22
      vertex 104.35 2 2
      vertex 104.35 2 22
    endloop
  endfacet
  facet normal 0 -1 0
    outer loop
      vertex 2 104.35 2
      vertex 104.35 104.35 22
      vertex 2 104.35 22
    endloop
  endfacet
  facet normal 0 -1 -0
    outer loop
      vertex 104.35 104.35 22
      vertex 2 104.35 2
      vertex 104.35 104.35 2
    endloop
  endfacet
  facet normal -0 0 1
    outer loop
      vertex 2 104.35 2
      vertex 104.35 2 2
      vertex 104.35 104.35 2
    endloop
  endfacet
  facet normal 0 0 1
    outer loop
      vertex 104.35 2 2
      vertex 2 104.35 2
      vertex 2 2 2
    endloop
  endfacet
  facet normal 0 1 -0
    outer loop
      vertex 104.35 2 2
      vertex 2 2 22
      vertex 104.35 2 22
    endloop
  endfacet
  facet normal 0 1 0
    outer loop
      vertex 2 2 22
      vertex 104.35 2 2
      vertex 2 2 2
    endloop
  endfacet
endsolid OpenSCAD_Model
