solid OpenSCAD_Model
  facet normal -0 0 -1
    outer loop
      vertex 3.48315 0.34306 0
      vertex -3.48315 -0.34306 0
      vertex -0.34306 54.4831 0
    endloop
  endfacet
  facet normal -0.998795 -0.0490677 0
    outer loop
      vertex -3.48315 -0.34306 0
      vertex -3.48315 -0.34306 1.5
      vertex -3.5 4.28612e-016 0
    endloop
  endfacet
  facet normal 0 -0 1
    outer loop
      vertex 3.48315 0.34306 1.5
      vertex 43.5 51 1.5
      vertex -3.48315 -0.34306 1.5
    endloop
  endfacet
  facet normal 0 0 1
    outer loop
      vertex 3.5 0 1.5
      vertex -3.48315 -0.34306 1.5
      vertex 42.7055 -2.22038 1.5
    endloop
  endfacet
  facet normal -0 0 1
    outer loop
      vertex 3.48315 0.34306 1.5
      vertex 3.5 0 1.5
      vertex 43.5 51 1.5
    endloop
  endfacet
  facet normal 0 0 -1
    outer loop
      vertex 3.48315 0.34306 0
      vertex -0.34306 54.4831 0
      vertex 42.7055 -2.22038 0
    endloop
  endfacet
  facet normal -0.989177 -0.14673 0
    outer loop
      vertex -3.48315 -0.34306 1.5
      vertex -3.43275 -0.682816 0
      vertex -3.43275 -0.682816 1.5
    endloop
  endfacet
  facet normal 0 0 1
    outer loop
      vertex 3.5 0 1.5
      vertex 3.48315 0.34306 1.5
      vertex -3.48315 -0.34306 1.5
    endloop
  endfacet
  facet normal 0 0 -1
    outer loop
      vertex -3.48315 -0.34306 0
      vertex 0.34306 -3.48315 0
      vertex -2.22038 -2.70554 0
    endloop
  endfacet
  facet normal 0 0 -1
    outer loop
      vertex -3.48315 -0.34306 0
      vertex 3.48315 0.34306 0
      vertex 0.34306 -3.48315 0
    endloop
  endfacet
  facet normal 0 0 -1
    outer loop
      vertex 43.5 51 0
      vertex 42.7055 53.2204 0
      vertex 43.2336 52.3394 0
    endloop
  endfacet
  facet normal 0 0 1
    outer loop
      vertex 43.5 51 1.5
      vertex 42.7055 -2.22038 1.5
      vertex 43.5 0 1.5
    endloop
  endfacet
  facet normal -0.970031 -0.24298 0
    outer loop
      vertex -3.43275 -0.682816 0
      vertex -3.34929 -1.016 0
      vertex -3.34929 -1.016 1.5
    endloop
  endfacet
  facet normal 0 0 -1
    outer loop
      vertex 0.34306 -3.48315 0
      vertex 3.48315 0.34306 0
      vertex 42.7055 -2.22038 0
    endloop
  endfacet
  facet normal 0 0 -1
    outer loop
      vertex 0.34306 -3.48315 0
      vertex 42.7055 -2.22038 0
      vertex 40 -3.5 0
    endloop
  endfacet
  facet normal 0 0 -1
    outer loop
      vertex -3.48315 -0.34306 0
      vertex -2.22038 -2.70554 0
      vertex -3.08672 -1.64989 0
    endloop
  endfacet
  facet normal 0 0 1
    outer loop
      vertex -2.47487 53.4749 1.5
      vertex 40.3431 54.4831 1.5
      vertex 2.14306e-016 54.5 1.5
    endloop
  endfacet
  facet normal 0 0 -1
    outer loop
      vertex -0.34306 54.4831 0
      vertex -3.48315 -0.34306 0
      vertex -3.48315 51.3431 0
    endloop
  endfacet
  facet normal 0 0 -1
    outer loop
      vertex 42.7055 -2.22038 0
      vertex -0.34306 54.4831 0
      vertex 42.7055 53.2204 0
    endloop
  endfacet
  facet normal 0 0 1
    outer loop
      vertex -3.48315 -0.34306 1.5
      vertex -2.47487 53.4749 1.5
      vertex -3.48315 51.3431 1.5
    endloop
  endfacet
  facet normal 0 0 -1
    outer loop
      vertex 42.7055 -2.22038 0
      vertex 43.5 0 0
      vertex 43.2336 -1.33939 0
    endloop
  endfacet
  facet normal 0 0 1
    outer loop
      vertex 43.5 51 1.5
      vertex 3.5 0 1.5
      vertex 42.7055 -2.22038 1.5
    endloop
  endfacet
  facet normal 0 0 -1
    outer loop
      vertex -2.22038 -2.70554 0
      vertex 0.34306 -3.48315 0
      vertex -1.016 -3.34929 0
    endloop
  endfacet
  facet normal 0 0 1
    outer loop
      vertex 42.7055 -2.22038 1.5
      vertex -6.42918e-016 -3.5 1.5
      vertex 41.6499 -3.08672 1.5
    endloop
  endfacet
  facet normal 0 0 -1
    outer loop
      vertex -2.22038 -2.70554 0
      vertex -1.016 -3.34929 0
      vertex -1.64989 -3.08672 0
    endloop
  endfacet
  facet normal 0 0 -1
    outer loop
      vertex -3.48315 -0.34306 0
      vertex -3.08672 -1.64989 0
      vertex -3.34929 -1.016 0
    endloop
  endfacet
  facet normal 0 0 -1
    outer loop
      vertex -0.34306 54.4831 0
      vertex -3.48315 51.3431 0
      vertex -2.47487 53.4749 0
    endloop
  endfacet
  facet normal 0 0 -1
    outer loop
      vertex -3.48315 51.3431 0
      vertex -3.48315 -0.34306 0
      vertex -3.5 51 0
    endloop
  endfacet
  facet normal 0 0 -1
    outer loop
      vertex -2.47487 53.4749 0
      vertex -3.08672 52.6499 0
      vertex -2.70554 53.2204 0
    endloop
  endfacet
  facet normal 0 0 1
    outer loop
      vertex -3.48315 -0.34306 1.5
      vertex 43.5 51 1.5
      vertex -2.47487 53.4749 1.5
    endloop
  endfacet
  facet normal 0 0 -1
    outer loop
      vertex 42.7055 -2.22038 0
      vertex 42.7055 53.2204 0
      vertex 43.5 0 0
    endloop
  endfacet
  facet normal 1 0 0
    outer loop
      vertex 43.5 51 1.5
      vertex 43.5 0 0
      vertex 43.5 51 0
    endloop
  endfacet
  facet normal 0.740951 -0.671559 0
    outer loop
      vertex 42.7055 -2.22038 0
      vertex 42.7055 -2.22038 1.5
      vertex 42.4749 -2.47487 1.5
    endloop
  endfacet
  facet normal 0 0 1
    outer loop
      vertex 42.7055 -2.22038 1.5
      vertex -3.48315 -0.34306 1.5
      vertex -6.42918e-016 -3.5 1.5
    endloop
  endfacet
  facet normal 0 0 -1
    outer loop
      vertex -3.08672 -1.64989 0
      vertex -2.22038 -2.70554 0
      vertex -2.70554 -2.22038 0
    endloop
  endfacet
  facet normal -0.671559 -0.740951 0
    outer loop
      vertex -2.22038 -2.70554 0
      vertex -2.22038 -2.70554 1.5
      vertex -2.47487 -2.47487 0
    endloop
  endfacet
  facet normal 0 0 -1
    outer loop
      vertex -3.08672 -1.64989 0
      vertex -2.70554 -2.22038 0
      vertex -2.91014 -1.9445 0
    endloop
  endfacet
  facet normal 0 0 -1
    outer loop
      vertex -3.48315 -0.34306 0
      vertex -3.34929 -1.016 0
      vertex -3.43275 -0.682816 0
    endloop
  endfacet
  facet normal 0 -0 1
    outer loop
      vertex -3.48315 -0.34306 1.5
      vertex -3.48315 51.3431 1.5
      vertex -3.5 4.28612e-016 1.5
    endloop
  endfacet
  facet normal 0 0 -1
    outer loop
      vertex -3.5 51 0
      vertex -3.48315 -0.34306 0
      vertex -3.5 4.28612e-016 0
    endloop
  endfacet
  facet normal -0.514103 0.857729 0
    outer loop
      vertex -1.64989 54.0867 0
      vertex -1.9445 53.9101 1.5
      vertex -1.64989 54.0867 1.5
    endloop
  endfacet
  facet normal -0 0 1
    outer loop
      vertex -2.47487 53.4749 1.5
      vertex 43.5 51 1.5
      vertex 40.3431 54.4831 1.5
    endloop
  endfacet
  facet normal -0.989177 0.14673 0
    outer loop
      vertex -3.48315 51.3431 0
      vertex -3.48315 51.3431 1.5
      vertex -3.43275 51.6828 0
    endloop
  endfacet
  facet normal 0 0 -1
    outer loop
      vertex -0.34306 54.4831 0
      vertex -2.47487 53.4749 0
      vertex -1.64989 54.0867 0
    endloop
  endfacet
  facet normal -0.998795 0.0490677 0
    outer loop
      vertex -3.48315 51.3431 0
      vertex -3.5 51 0
      vertex -3.48315 51.3431 1.5
    endloop
  endfacet
  facet normal -1 0 0
    outer loop
      vertex -3.5 51 0
      vertex -3.5 4.28612e-016 1.5
      vertex -3.5 51 1.5
    endloop
  endfacet
  facet normal 0.998795 -0.0490677 0
    outer loop
      vertex 43.5 0 0
      vertex 43.5 0 1.5
      vertex 43.4831 -0.34306 0
    endloop
  endfacet
  facet normal 1 0 0
    outer loop
      vertex 43.5 0 0
      vertex 43.5 51 1.5
      vertex 43.5 0 1.5
    endloop
  endfacet
  facet normal 0.903989 -0.427555 0
    outer loop
      vertex 43.2336 -1.33939 0
      vertex 43.2336 -1.33939 1.5
      vertex 43.0867 -1.64989 0
    endloop
  endfacet
  facet normal 0 0 -1
    outer loop
      vertex 42.7055 -2.22038 0
      vertex 43.2336 -1.33939 0
      vertex 43.0867 -1.64989 0
    endloop
  endfacet
  facet normal 0 0 -1
    outer loop
      vertex 43.5 0 0
      vertex 42.7055 53.2204 0
      vertex 43.5 51 0
    endloop
  endfacet
  facet normal 0.998795 0.0490677 0
    outer loop
      vertex 43.5 51 1.5
      vertex 43.5 51 0
      vertex 43.4831 51.3431 0
    endloop
  endfacet
  facet normal -0.24298 -0.970031 0
    outer loop
      vertex -1.016 -3.34929 0
      vertex -0.682816 -3.43275 0
      vertex -1.016 -3.34929 1.5
    endloop
  endfacet
  facet normal 0 0 1
    outer loop
      vertex -6.42918e-016 -3.5 1.5
      vertex -3.48315 -0.34306 1.5
      vertex -2.22038 -2.70554 1.5
    endloop
  endfacet
  facet normal 0 0 -1
    outer loop
      vertex -1.016 -3.34929 0
      vertex -0.34306 -3.48315 0
      vertex -0.682816 -3.43275 0
    endloop
  endfacet
  facet normal 0 0 -1
    outer loop
      vertex -1.016 -3.34929 0
      vertex 0.34306 -3.48315 0
      vertex -0.34306 -3.48315 0
    endloop
  endfacet
  facet normal -0.0490677 -0.998795 -0
    outer loop
      vertex -6.42918e-016 -3.5 1.5
      vertex -0.34306 -3.48315 0
      vertex -6.42918e-016 -3.5 0
    endloop
  endfacet
  facet normal 0 0 -1
    outer loop
      vertex -0.34306 -3.48315 0
      vertex 0.34306 -3.48315 0
      vertex 40 -3.5 0
    endloop
  endfacet
  facet normal 0 0 -1
    outer loop
      vertex -3.34929 -1.016 0
      vertex -3.08672 -1.64989 0
      vertex -3.23358 -1.33939 0
    endloop
  endfacet
  facet normal -0.903989 -0.427555 0
    outer loop
      vertex -3.23358 -1.33939 0
      vertex -3.08672 -1.64989 0
      vertex -3.08672 -1.64989 1.5
    endloop
  endfacet
  facet normal -0.941544 -0.33689 0
    outer loop
      vertex -3.34929 -1.016 0
      vertex -3.23358 -1.33939 0
      vertex -3.34929 -1.016 1.5
    endloop
  endfacet
  facet normal -0.989177 -0.14673 -0
    outer loop
      vertex -3.48315 -0.34306 1.5
      vertex -3.48315 -0.34306 0
      vertex -3.43275 -0.682816 0
    endloop
  endfacet
  facet normal -1 0 0
    outer loop
      vertex -3.5 51 0
      vertex -3.5 4.28612e-016 0
      vertex -3.5 4.28612e-016 1.5
    endloop
  endfacet
  facet normal -0.998795 -0.0490677 0
    outer loop
      vertex -3.5 4.28612e-016 0
      vertex -3.48315 -0.34306 1.5
      vertex -3.5 4.28612e-016 1.5
    endloop
  endfacet
  facet normal 0 0 -1
    outer loop
      vertex 42.7055 53.2204 0
      vertex 40 54.5 0
      vertex 41.6499 54.0867 0
    endloop
  endfacet
  facet normal 0 0 1
    outer loop
      vertex 40.3431 54.4831 1.5
      vertex 43.5 51 1.5
      vertex 42.7055 53.2204 1.5
    endloop
  endfacet
  facet normal 0 0 1
    outer loop
      vertex 40.3431 54.4831 1.5
      vertex 41.6499 54.0867 1.5
      vertex 41.016 54.3493 1.5
    endloop
  endfacet
  facet normal 0 0 -1
    outer loop
      vertex 42.7055 53.2204 0
      vertex -0.34306 54.4831 0
      vertex 40 54.5 0
    endloop
  endfacet
  facet normal 0.0490677 0.998795 0
    outer loop
      vertex 40.3431 54.4831 1.5
      vertex 40 54.5 0
      vertex 40 54.5 1.5
    endloop
  endfacet
  facet normal -0.0490677 0.998795 0
    outer loop
      vertex -0.34306 54.4831 0
      vertex 2.14306e-016 54.5 1.5
      vertex 2.14306e-016 54.5 0
    endloop
  endfacet
  facet normal -0.740951 0.671559 0
    outer loop
      vertex -2.47487 53.4749 1.5
      vertex -2.47487 53.4749 0
      vertex -2.70554 53.2204 0
    endloop
  endfacet
  facet normal 0 0 -1
    outer loop
      vertex -2.47487 53.4749 0
      vertex -3.48315 51.3431 0
      vertex -3.08672 52.6499 0
    endloop
  endfacet
  facet normal 0 0 -1
    outer loop
      vertex -0.34306 54.4831 0
      vertex -1.64989 54.0867 0
      vertex -1.016 54.3493 0
    endloop
  endfacet
  facet normal 0 0 1
    outer loop
      vertex -2.47487 53.4749 1.5
      vertex -1.33939 54.2336 1.5
      vertex -1.9445 53.9101 1.5
    endloop
  endfacet
  facet normal 0 0 -1
    outer loop
      vertex 43.2336 -1.33939 0
      vertex 43.4327 -0.682816 0
      vertex 43.3493 -1.016 0
    endloop
  endfacet
  facet normal 0 0 -1
    outer loop
      vertex 43.2336 -1.33939 0
      vertex 43.5 0 0
      vertex 43.4327 -0.682816 0
    endloop
  endfacet
  facet normal 0 0 1
    outer loop
      vertex 43.5 0 1.5
      vertex 43.2336 -1.33939 1.5
      vertex 43.4327 -0.682816 1.5
    endloop
  endfacet
  facet normal 0 0 1
    outer loop
      vertex 43.5 0 1.5
      vertex 42.7055 -2.22038 1.5
      vertex 43.2336 -1.33939 1.5
    endloop
  endfacet
  facet normal 0.857729 -0.514103 0
    outer loop
      vertex 43.0867 -1.64989 0
      vertex 43.0867 -1.64989 1.5
      vertex 42.9101 -1.9445 0
    endloop
  endfacet
  facet normal 0 0 -1
    outer loop
      vertex 42.7055 -2.22038 0
      vertex 43.0867 -1.64989 0
      vertex 42.9101 -1.9445 0
    endloop
  endfacet
  facet normal 0.803208 0.595699 -0
    outer loop
      vertex 42.7055 53.2204 0
      vertex 42.7055 53.2204 1.5
      vertex 42.9101 52.9445 0
    endloop
  endfacet
  facet normal 0.998795 0.0490677 0
    outer loop
      vertex 43.5 51 1.5
      vertex 43.4831 51.3431 0
      vertex 43.4831 51.3431 1.5
    endloop
  endfacet
  facet normal -0.740951 -0.671559 0
    outer loop
      vertex -2.70554 -2.22038 0
      vertex -2.47487 -2.47487 0
      vertex -2.70554 -2.22038 1.5
    endloop
  endfacet
  facet normal 0 0 1
    outer loop
      vertex -2.22038 -2.70554 1.5
      vertex -3.48315 -0.34306 1.5
      vertex -3.08672 -1.64989 1.5
    endloop
  endfacet
  facet normal 0 0 1
    outer loop
      vertex -2.22038 -2.70554 1.5
      vertex -2.70554 -2.22038 1.5
      vertex -2.47487 -2.47487 1.5
    endloop
  endfacet
  facet normal 0 0 -1
    outer loop
      vertex -2.70554 -2.22038 0
      vertex -2.22038 -2.70554 0
      vertex -2.47487 -2.47487 0
    endloop
  endfacet
  facet normal 0 0 1
    outer loop
      vertex -6.42918e-016 -3.5 1.5
      vertex -2.22038 -2.70554 1.5
      vertex -1.64989 -3.08672 1.5
    endloop
  endfacet
  facet normal 0 0 -1
    outer loop
      vertex -2.22038 -2.70554 0
      vertex -1.64989 -3.08672 0
      vertex -1.9445 -2.91014 0
    endloop
  endfacet
  facet normal -0.24298 -0.970031 0
    outer loop
      vertex -1.016 -3.34929 1.5
      vertex -0.682816 -3.43275 0
      vertex -0.682816 -3.43275 1.5
    endloop
  endfacet
  facet normal 0 0 1
    outer loop
      vertex -6.42918e-016 -3.5 1.5
      vertex -1.016 -3.34929 1.5
      vertex -0.682816 -3.43275 1.5
    endloop
  endfacet
  facet normal 0 -1 0
    outer loop
      vertex -6.42918e-016 -3.5 1.5
      vertex 40 -3.5 0
      vertex 40 -3.5 1.5
    endloop
  endfacet
  facet normal 0.740951 -0.671559 0
    outer loop
      vertex 42.7055 -2.22038 0
      vertex 42.4749 -2.47487 1.5
      vertex 42.4749 -2.47487 0
    endloop
  endfacet
  facet normal 0 0 -1
    outer loop
      vertex -0.34306 -3.48315 0
      vertex 40 -3.5 0
      vertex -6.42918e-016 -3.5 0
    endloop
  endfacet
  facet normal 0 -1 0
    outer loop
      vertex 40 -3.5 0
      vertex -6.42918e-016 -3.5 1.5
      vertex -6.42918e-016 -3.5 0
    endloop
  endfacet
  facet normal 0 0 1
    outer loop
      vertex -3.5 4.28612e-016 1.5
      vertex -3.48315 51.3431 1.5
      vertex -3.5 51 1.5
    endloop
  endfacet
  facet normal -0.998795 0.0490677 0
    outer loop
      vertex -3.48315 51.3431 1.5
      vertex -3.5 51 0
      vertex -3.5 51 1.5
    endloop
  endfacet
  facet normal 0 0 1
    outer loop
      vertex 40.3431 54.4831 1.5
      vertex 42.7055 53.2204 1.5
      vertex 41.6499 54.0867 1.5
    endloop
  endfacet
  facet normal 0 0 -1
    outer loop
      vertex 42.7055 53.2204 0
      vertex 41.6499 54.0867 0
      vertex 42.2204 53.7055 0
    endloop
  endfacet
  facet normal 0 1 -0
    outer loop
      vertex 40 54.5 0
      vertex 2.14306e-016 54.5 1.5
      vertex 40 54.5 1.5
    endloop
  endfacet
  facet normal -0 0 1
    outer loop
      vertex 2.14306e-016 54.5 1.5
      vertex 40.3431 54.4831 1.5
      vertex 40 54.5 1.5
    endloop
  endfacet
  facet normal 0 1 0
    outer loop
      vertex 2.14306e-016 54.5 1.5
      vertex 40 54.5 0
      vertex 2.14306e-016 54.5 0
    endloop
  endfacet
  facet normal -0 0 -1
    outer loop
      vertex 40 54.5 0
      vertex -0.34306 54.4831 0
      vertex 2.14306e-016 54.5 0
    endloop
  endfacet
  facet normal 0 0 -1
    outer loop
      vertex -3.08672 52.6499 0
      vertex -3.34929 52.016 0
      vertex -3.23358 52.3394 0
    endloop
  endfacet
  facet normal 0 0 -1
    outer loop
      vertex -3.08672 52.6499 0
      vertex -3.48315 51.3431 0
      vertex -3.34929 52.016 0
    endloop
  endfacet
  facet normal 0 0 1
    outer loop
      vertex -3.48315 51.3431 1.5
      vertex -3.08672 52.6499 1.5
      vertex -3.34929 52.016 1.5
    endloop
  endfacet
  facet normal 0 0 1
    outer loop
      vertex -3.48315 51.3431 1.5
      vertex -2.47487 53.4749 1.5
      vertex -3.08672 52.6499 1.5
    endloop
  endfacet
  facet normal -0.857729 0.514103 0
    outer loop
      vertex -3.08672 52.6499 0
      vertex -3.08672 52.6499 1.5
      vertex -2.91014 52.9445 0
    endloop
  endfacet
  facet normal -0.740951 0.671559 0
    outer loop
      vertex -2.47487 53.4749 1.5
      vertex -2.70554 53.2204 0
      vertex -2.70554 53.2204 1.5
    endloop
  endfacet
  facet normal 0 0 -1
    outer loop
      vertex -1.64989 54.0867 0
      vertex -2.47487 53.4749 0
      vertex -2.22038 53.7055 0
    endloop
  endfacet
  facet normal -0.671559 0.740951 0
    outer loop
      vertex -2.47487 53.4749 0
      vertex -2.47487 53.4749 1.5
      vertex -2.22038 53.7055 0
    endloop
  endfacet
  facet normal 0 0 1
    outer loop
      vertex -2.47487 53.4749 1.5
      vertex 2.14306e-016 54.5 1.5
      vertex -1.33939 54.2336 1.5
    endloop
  endfacet
  facet normal -0.427555 0.903989 0
    outer loop
      vertex -1.64989 54.0867 0
      vertex -1.33939 54.2336 1.5
      vertex -1.33939 54.2336 0
    endloop
  endfacet
  facet normal 0.970031 -0.24298 0
    outer loop
      vertex 43.3493 -1.016 0
      vertex 43.4327 -0.682816 0
      vertex 43.4327 -0.682816 1.5
    endloop
  endfacet
  facet normal 0 0 -1
    outer loop
      vertex 43.4327 -0.682816 0
      vertex 43.5 0 0
      vertex 43.4831 -0.34306 0
    endloop
  endfacet
  facet normal 0.941544 -0.33689 0
    outer loop
      vertex 43.2336 -1.33939 1.5
      vertex 43.3493 -1.016 0
      vertex 43.3493 -1.016 1.5
    endloop
  endfacet
  facet normal 0.941544 -0.33689 0
    outer loop
      vertex 43.2336 -1.33939 1.5
      vertex 43.2336 -1.33939 0
      vertex 43.3493 -1.016 0
    endloop
  endfacet
  facet normal 0.989177 -0.14673 0
    outer loop
      vertex 43.4327 -0.682816 0
      vertex 43.4831 -0.34306 0
      vertex 43.4327 -0.682816 1.5
    endloop
  endfacet
  facet normal 0 0 1
    outer loop
      vertex 43.5 0 1.5
      vertex 43.4327 -0.682816 1.5
      vertex 43.4831 -0.34306 1.5
    endloop
  endfacet
  facet normal 0.903989 -0.427555 0
    outer loop
      vertex 43.0867 -1.64989 0
      vertex 43.2336 -1.33939 1.5
      vertex 43.0867 -1.64989 1.5
    endloop
  endfacet
  facet normal 0 0 1
    outer loop
      vertex 43.2336 -1.33939 1.5
      vertex 42.7055 -2.22038 1.5
      vertex 43.0867 -1.64989 1.5
    endloop
  endfacet
  facet normal 0.803208 -0.595699 0
    outer loop
      vertex 42.7055 -2.22038 1.5
      vertex 42.9101 -1.9445 0
      vertex 42.9101 -1.9445 1.5
    endloop
  endfacet
  facet normal 0.803208 -0.595699 0
    outer loop
      vertex 42.7055 -2.22038 1.5
      vertex 42.7055 -2.22038 0
      vertex 42.9101 -1.9445 0
    endloop
  endfacet
  facet normal 0 0 -1
    outer loop
      vertex 43.5 51 0
      vertex 43.2336 52.3394 0
      vertex 43.4327 51.6828 0
    endloop
  endfacet
  facet normal 0.941544 0.33689 -0
    outer loop
      vertex 43.2336 52.3394 0
      vertex 43.2336 52.3394 1.5
      vertex 43.3493 52.016 0
    endloop
  endfacet
  facet normal 0.903989 0.427555 -0
    outer loop
      vertex 43.2336 52.3394 0
      vertex 43.0867 52.6499 0
      vertex 43.2336 52.3394 1.5
    endloop
  endfacet
  facet normal 0 0 -1
    outer loop
      vertex 43.2336 52.3394 0
      vertex 42.7055 53.2204 0
      vertex 43.0867 52.6499 0
    endloop
  endfacet
  facet normal 0 0 1
    outer loop
      vertex 42.7055 53.2204 1.5
      vertex 43.2336 52.3394 1.5
      vertex 43.0867 52.6499 1.5
    endloop
  endfacet
  facet normal 0 0 1
    outer loop
      vertex 42.7055 53.2204 1.5
      vertex 43.5 51 1.5
      vertex 43.2336 52.3394 1.5
    endloop
  endfacet
  facet normal -0.903989 -0.427555 0
    outer loop
      vertex -3.23358 -1.33939 0
      vertex -3.08672 -1.64989 1.5
      vertex -3.23358 -1.33939 1.5
    endloop
  endfacet
  facet normal 0 0 1
    outer loop
      vertex -3.08672 -1.64989 1.5
      vertex -3.48315 -0.34306 1.5
      vertex -3.34929 -1.016 1.5
    endloop
  endfacet
  facet normal 0 0 1
    outer loop
      vertex -2.22038 -2.70554 1.5
      vertex -3.08672 -1.64989 1.5
      vertex -2.91014 -1.9445 1.5
    endloop
  endfacet
  facet normal -0.857729 -0.514103 -0
    outer loop
      vertex -3.08672 -1.64989 1.5
      vertex -3.08672 -1.64989 0
      vertex -2.91014 -1.9445 1.5
    endloop
  endfacet
  facet normal -0.33689 -0.941544 0
    outer loop
      vertex -1.016 -3.34929 0
      vertex -1.016 -3.34929 1.5
      vertex -1.33939 -3.23358 0
    endloop
  endfacet
  facet normal -0.514103 -0.857729 0
    outer loop
      vertex -1.64989 -3.08672 0
      vertex -1.64989 -3.08672 1.5
      vertex -1.9445 -2.91014 1.5
    endloop
  endfacet
  facet normal 0 0 1
    outer loop
      vertex -6.42918e-016 -3.5 1.5
      vertex -1.64989 -3.08672 1.5
      vertex -1.016 -3.34929 1.5
    endloop
  endfacet
  facet normal -0.427555 -0.903989 0
    outer loop
      vertex -1.64989 -3.08672 1.5
      vertex -1.33939 -3.23358 0
      vertex -1.33939 -3.23358 1.5
    endloop
  endfacet
  facet normal 0 0 1
    outer loop
      vertex -1.64989 -3.08672 1.5
      vertex -2.22038 -2.70554 1.5
      vertex -1.9445 -2.91014 1.5
    endloop
  endfacet
  facet normal -0.595699 -0.803208 -0
    outer loop
      vertex -2.22038 -2.70554 1.5
      vertex -2.22038 -2.70554 0
      vertex -1.9445 -2.91014 1.5
    endloop
  endfacet
  facet normal 0 0 1
    outer loop
      vertex 42.7055 -2.22038 1.5
      vertex 41.6499 -3.08672 1.5
      vertex 42.2204 -2.70554 1.5
    endloop
  endfacet
  facet normal 0.514103 -0.857729 0
    outer loop
      vertex 41.6499 -3.08672 1.5
      vertex 41.6499 -3.08672 0
      vertex 41.9445 -2.91014 1.5
    endloop
  endfacet
  facet normal 0 0 -1
    outer loop
      vertex 40 -3.5 0
      vertex 41.6499 -3.08672 0
      vertex 41.016 -3.34929 0
    endloop
  endfacet
  facet normal 0 0 1
    outer loop
      vertex 41.6499 -3.08672 1.5
      vertex -6.42918e-016 -3.5 1.5
      vertex 40 -3.5 1.5
    endloop
  endfacet
  facet normal 0 0 1
    outer loop
      vertex 41.6499 -3.08672 1.5
      vertex 41.016 -3.34929 1.5
      vertex 41.3394 -3.23358 1.5
    endloop
  endfacet
  facet normal 0 0 -1
    outer loop
      vertex 40 -3.5 0
      vertex 42.7055 -2.22038 0
      vertex 41.6499 -3.08672 0
    endloop
  endfacet
  facet normal 0.427555 0.903989 0
    outer loop
      vertex 41.6499 54.0867 1.5
      vertex 41.6499 54.0867 0
      vertex 41.3394 54.2336 1.5
    endloop
  endfacet
  facet normal 0 0 1
    outer loop
      vertex 41.6499 54.0867 1.5
      vertex 42.2204 53.7055 1.5
      vertex 41.9445 53.9101 1.5
    endloop
  endfacet
  facet normal 0 0 1
    outer loop
      vertex 41.6499 54.0867 1.5
      vertex 42.7055 53.2204 1.5
      vertex 42.2204 53.7055 1.5
    endloop
  endfacet
  facet normal 0 0 -1
    outer loop
      vertex 42.7055 53.2204 0
      vertex 42.2204 53.7055 0
      vertex 42.4749 53.4749 0
    endloop
  endfacet
  facet normal -0.941544 0.33689 0
    outer loop
      vertex -3.23358 52.3394 0
      vertex -3.34929 52.016 0
      vertex -3.34929 52.016 1.5
    endloop
  endfacet
  facet normal 0 0 -1
    outer loop
      vertex -3.34929 52.016 0
      vertex -3.48315 51.3431 0
      vertex -3.43275 51.6828 0
    endloop
  endfacet
  facet normal -0.903989 0.427555 0
    outer loop
      vertex -3.08672 52.6499 1.5
      vertex -3.23358 52.3394 0
      vertex -3.23358 52.3394 1.5
    endloop
  endfacet
  facet normal -0.903989 0.427555 0
    outer loop
      vertex -3.08672 52.6499 1.5
      vertex -3.08672 52.6499 0
      vertex -3.23358 52.3394 0
    endloop
  endfacet
  facet normal -0.970031 0.24298 0
    outer loop
      vertex -3.34929 52.016 0
      vertex -3.43275 51.6828 0
      vertex -3.34929 52.016 1.5
    endloop
  endfacet
  facet normal 0 0 1
    outer loop
      vertex -3.48315 51.3431 1.5
      vertex -3.34929 52.016 1.5
      vertex -3.43275 51.6828 1.5
    endloop
  endfacet
  facet normal -0.803208 0.595699 0
    outer loop
      vertex -2.70554 53.2204 0
      vertex -2.91014 52.9445 0
      vertex -2.70554 53.2204 1.5
    endloop
  endfacet
  facet normal 0 0 -1
    outer loop
      vertex -2.70554 53.2204 0
      vertex -3.08672 52.6499 0
      vertex -2.91014 52.9445 0
    endloop
  endfacet
  facet normal 0 0 1
    outer loop
      vertex -3.08672 52.6499 1.5
      vertex -2.70554 53.2204 1.5
      vertex -2.91014 52.9445 1.5
    endloop
  endfacet
  facet normal 0 0 1
    outer loop
      vertex -3.08672 52.6499 1.5
      vertex -2.47487 53.4749 1.5
      vertex -2.70554 53.2204 1.5
    endloop
  endfacet
  facet normal 0 0 -1
    outer loop
      vertex -0.34306 54.4831 0
      vertex -1.016 54.3493 0
      vertex -0.682816 54.4327 0
    endloop
  endfacet
  facet normal 0 0 1
    outer loop
      vertex -1.33939 54.2336 1.5
      vertex -0.682816 54.4327 1.5
      vertex -1.016 54.3493 1.5
    endloop
  endfacet
  facet normal 0 0 -1
    outer loop
      vertex -1.64989 54.0867 0
      vertex -2.22038 53.7055 0
      vertex -1.9445 53.9101 0
    endloop
  endfacet
  facet normal 0 0 1
    outer loop
      vertex -2.47487 53.4749 1.5
      vertex -1.9445 53.9101 1.5
      vertex -2.22038 53.7055 1.5
    endloop
  endfacet
  facet normal 0.970031 -0.24298 0
    outer loop
      vertex 43.3493 -1.016 0
      vertex 43.4327 -0.682816 1.5
      vertex 43.3493 -1.016 1.5
    endloop
  endfacet
  facet normal 0 0 1
    outer loop
      vertex 43.4327 -0.682816 1.5
      vertex 43.2336 -1.33939 1.5
      vertex 43.3493 -1.016 1.5
    endloop
  endfacet
  facet normal 0.989177 -0.14673 0
    outer loop
      vertex 43.4327 -0.682816 1.5
      vertex 43.4831 -0.34306 0
      vertex 43.4831 -0.34306 1.5
    endloop
  endfacet
  facet normal 0.998795 -0.0490677 0
    outer loop
      vertex 43.4831 -0.34306 0
      vertex 43.5 0 1.5
      vertex 43.4831 -0.34306 1.5
    endloop
  endfacet
  facet normal 0.857729 -0.514103 0
    outer loop
      vertex 42.9101 -1.9445 0
      vertex 43.0867 -1.64989 1.5
      vertex 42.9101 -1.9445 1.5
    endloop
  endfacet
  facet normal 0 0 1
    outer loop
      vertex 43.0867 -1.64989 1.5
      vertex 42.7055 -2.22038 1.5
      vertex 42.9101 -1.9445 1.5
    endloop
  endfacet
  facet normal 0 0 -1
    outer loop
      vertex 43.5 51 0
      vertex 43.4327 51.6828 0
      vertex 43.4831 51.3431 0
    endloop
  endfacet
  facet normal 0.989177 0.14673 0
    outer loop
      vertex 43.4831 51.3431 0
      vertex 43.4327 51.6828 0
      vertex 43.4327 51.6828 1.5
    endloop
  endfacet
  facet normal 0.903989 0.427555 0
    outer loop
      vertex 43.2336 52.3394 1.5
      vertex 43.0867 52.6499 0
      vertex 43.0867 52.6499 1.5
    endloop
  endfacet
  facet normal 0 0 -1
    outer loop
      vertex 43.0867 52.6499 0
      vertex 42.7055 53.2204 0
      vertex 42.9101 52.9445 0
    endloop
  endfacet
  facet normal 0 0 1
    outer loop
      vertex 43.2336 52.3394 1.5
      vertex 43.4327 51.6828 1.5
      vertex 43.3493 52.016 1.5
    endloop
  endfacet
  facet normal 0 0 1
    outer loop
      vertex 43.2336 52.3394 1.5
      vertex 43.5 51 1.5
      vertex 43.4327 51.6828 1.5
    endloop
  endfacet
  facet normal 0.970031 0.24298 0
    outer loop
      vertex 43.4327 51.6828 1.5
      vertex 43.4327 51.6828 0
      vertex 43.3493 52.016 0
    endloop
  endfacet
  facet normal 0 0 -1
    outer loop
      vertex 43.4327 51.6828 0
      vertex 43.2336 52.3394 0
      vertex 43.3493 52.016 0
    endloop
  endfacet
  facet normal 0.857729 0.514103 -0
    outer loop
      vertex 43.0867 52.6499 0
      vertex 42.9101 52.9445 0
      vertex 43.0867 52.6499 1.5
    endloop
  endfacet
  facet normal 0 0 1
    outer loop
      vertex 42.7055 53.2204 1.5
      vertex 43.0867 52.6499 1.5
      vertex 42.9101 52.9445 1.5
    endloop
  endfacet
  facet normal -0.970031 -0.24298 0
    outer loop
      vertex -3.43275 -0.682816 0
      vertex -3.34929 -1.016 1.5
      vertex -3.43275 -0.682816 1.5
    endloop
  endfacet
  facet normal 0 0 1
    outer loop
      vertex -3.34929 -1.016 1.5
      vertex -3.48315 -0.34306 1.5
      vertex -3.43275 -0.682816 1.5
    endloop
  endfacet
  facet normal 0 0 1
    outer loop
      vertex -3.08672 -1.64989 1.5
      vertex -3.34929 -1.016 1.5
      vertex -3.23358 -1.33939 1.5
    endloop
  endfacet
  facet normal -0.941544 -0.33689 0
    outer loop
      vertex -3.34929 -1.016 1.5
      vertex -3.23358 -1.33939 0
      vertex -3.23358 -1.33939 1.5
    endloop
  endfacet
  facet normal -0.803208 -0.595699 0
    outer loop
      vertex -2.70554 -2.22038 0
      vertex -2.91014 -1.9445 1.5
      vertex -2.91014 -1.9445 0
    endloop
  endfacet
  facet normal -0.857729 -0.514103 -0
    outer loop
      vertex -2.91014 -1.9445 1.5
      vertex -3.08672 -1.64989 0
      vertex -2.91014 -1.9445 0
    endloop
  endfacet
  facet normal 0 0 1
    outer loop
      vertex -2.22038 -2.70554 1.5
      vertex -2.91014 -1.9445 1.5
      vertex -2.70554 -2.22038 1.5
    endloop
  endfacet
  facet normal -0.803208 -0.595699 0
    outer loop
      vertex -2.91014 -1.9445 1.5
      vertex -2.70554 -2.22038 0
      vertex -2.70554 -2.22038 1.5
    endloop
  endfacet
  facet normal -0.427555 -0.903989 -0
    outer loop
      vertex -1.64989 -3.08672 1.5
      vertex -1.64989 -3.08672 0
      vertex -1.33939 -3.23358 0
    endloop
  endfacet
  facet normal 0 0 -1
    outer loop
      vertex -1.64989 -3.08672 0
      vertex -1.016 -3.34929 0
      vertex -1.33939 -3.23358 0
    endloop
  endfacet
  facet normal -0.14673 -0.989177 0
    outer loop
      vertex -0.682816 -3.43275 0
      vertex -0.34306 -3.48315 0
      vertex -0.682816 -3.43275 1.5
    endloop
  endfacet
  facet normal 0 0 1
    outer loop
      vertex -6.42918e-016 -3.5 1.5
      vertex -0.682816 -3.43275 1.5
      vertex -0.34306 -3.48315 1.5
    endloop
  endfacet
  facet normal -0.514103 -0.857729 0
    outer loop
      vertex -1.64989 -3.08672 0
      vertex -1.9445 -2.91014 1.5
      vertex -1.9445 -2.91014 0
    endloop
  endfacet
  facet normal -0.595699 -0.803208 -0
    outer loop
      vertex -1.9445 -2.91014 1.5
      vertex -2.22038 -2.70554 0
      vertex -1.9445 -2.91014 0
    endloop
  endfacet
  facet normal 0 0 1
    outer loop
      vertex 42.7055 -2.22038 1.5
      vertex 42.2204 -2.70554 1.5
      vertex 42.4749 -2.47487 1.5
    endloop
  endfacet
  facet normal 0.671559 -0.740951 0
    outer loop
      vertex 42.4749 -2.47487 1.5
      vertex 42.2204 -2.70554 1.5
      vertex 42.2204 -2.70554 0
    endloop
  endfacet
  facet normal 0 0 1
    outer loop
      vertex 41.6499 -3.08672 1.5
      vertex 40 -3.5 1.5
      vertex 41.016 -3.34929 1.5
    endloop
  endfacet
  facet normal 0 0 -1
    outer loop
      vertex 40 -3.5 0
      vertex 41.016 -3.34929 0
      vertex 40.3431 -3.48315 0
    endloop
  endfacet
  facet normal 0 0 -1
    outer loop
      vertex 41.6499 -3.08672 0
      vertex 42.2204 -2.70554 0
      vertex 41.9445 -2.91014 0
    endloop
  endfacet
  facet normal 0 0 -1
    outer loop
      vertex 41.6499 -3.08672 0
      vertex 42.7055 -2.22038 0
      vertex 42.2204 -2.70554 0
    endloop
  endfacet
  facet normal 0.595699 -0.803208 0
    outer loop
      vertex 42.2204 -2.70554 0
      vertex 42.2204 -2.70554 1.5
      vertex 41.9445 -2.91014 1.5
    endloop
  endfacet
  facet normal 0 0 1
    outer loop
      vertex 42.2204 -2.70554 1.5
      vertex 41.6499 -3.08672 1.5
      vertex 41.9445 -2.91014 1.5
    endloop
  endfacet
  facet normal 0 0 -1
    outer loop
      vertex 41.6499 54.0867 0
      vertex 40 54.5 0
      vertex 40.6828 54.4327 0
    endloop
  endfacet
  facet normal 0.14673 0.989177 0
    outer loop
      vertex 40.3431 54.4831 1.5
      vertex 40.6828 54.4327 0
      vertex 40.3431 54.4831 0
    endloop
  endfacet
  facet normal 0.595699 0.803208 0
    outer loop
      vertex 42.2204 53.7055 1.5
      vertex 42.2204 53.7055 0
      vertex 41.9445 53.9101 1.5
    endloop
  endfacet
  facet normal 0.671559 0.740951 -0
    outer loop
      vertex 42.2204 53.7055 0
      vertex 42.2204 53.7055 1.5
      vertex 42.4749 53.4749 1.5
    endloop
  endfacet
  facet normal 0.514103 0.857729 0
    outer loop
      vertex 41.6499 54.0867 0
      vertex 41.9445 53.9101 1.5
      vertex 41.9445 53.9101 0
    endloop
  endfacet
  facet normal 0.514103 0.857729 -0
    outer loop
      vertex 41.6499 54.0867 0
      vertex 41.6499 54.0867 1.5
      vertex 41.9445 53.9101 1.5
    endloop
  endfacet
  facet normal 0 0 1
    outer loop
      vertex 42.2204 53.7055 1.5
      vertex 42.7055 53.2204 1.5
      vertex 42.4749 53.4749 1.5
    endloop
  endfacet
  facet normal 0.740951 0.671559 0
    outer loop
      vertex 42.7055 53.2204 1.5
      vertex 42.7055 53.2204 0
      vertex 42.4749 53.4749 1.5
    endloop
  endfacet
  facet normal -0.941544 0.33689 0
    outer loop
      vertex -3.23358 52.3394 0
      vertex -3.34929 52.016 1.5
      vertex -3.23358 52.3394 1.5
    endloop
  endfacet
  facet normal 0 0 1
    outer loop
      vertex -3.34929 52.016 1.5
      vertex -3.08672 52.6499 1.5
      vertex -3.23358 52.3394 1.5
    endloop
  endfacet
  facet normal -0.970031 0.24298 0
    outer loop
      vertex -3.34929 52.016 1.5
      vertex -3.43275 51.6828 0
      vertex -3.43275 51.6828 1.5
    endloop
  endfacet
  facet normal -0.989177 0.14673 0
    outer loop
      vertex -3.43275 51.6828 0
      vertex -3.48315 51.3431 1.5
      vertex -3.43275 51.6828 1.5
    endloop
  endfacet
  facet normal -0.803208 0.595699 0
    outer loop
      vertex -2.70554 53.2204 1.5
      vertex -2.91014 52.9445 0
      vertex -2.91014 52.9445 1.5
    endloop
  endfacet
  facet normal -0.857729 0.514103 0
    outer loop
      vertex -2.91014 52.9445 0
      vertex -3.08672 52.6499 1.5
      vertex -2.91014 52.9445 1.5
    endloop
  endfacet
  facet normal -0.33689 0.941544 0
    outer loop
      vertex -1.33939 54.2336 1.5
      vertex -1.016 54.3493 0
      vertex -1.33939 54.2336 0
    endloop
  endfacet
  facet normal 0 0 -1
    outer loop
      vertex -1.016 54.3493 0
      vertex -1.64989 54.0867 0
      vertex -1.33939 54.2336 0
    endloop
  endfacet
  facet normal 0 0 1
    outer loop
      vertex -1.33939 54.2336 1.5
      vertex 2.14306e-016 54.5 1.5
      vertex -0.682816 54.4327 1.5
    endloop
  endfacet
  facet normal -0.14673 0.989177 0
    outer loop
      vertex -0.34306 54.4831 0
      vertex -0.682816 54.4327 1.5
      vertex -0.34306 54.4831 1.5
    endloop
  endfacet
  facet normal 0 0 1
    outer loop
      vertex -1.9445 53.9101 1.5
      vertex -1.33939 54.2336 1.5
      vertex -1.64989 54.0867 1.5
    endloop
  endfacet
  facet normal -0.427555 0.903989 0
    outer loop
      vertex -1.33939 54.2336 1.5
      vertex -1.64989 54.0867 0
      vertex -1.64989 54.0867 1.5
    endloop
  endfacet
  facet normal -0.595699 0.803208 0
    outer loop
      vertex -2.22038 53.7055 0
      vertex -1.9445 53.9101 1.5
      vertex -1.9445 53.9101 0
    endloop
  endfacet
  facet normal -0.514103 0.857729 0
    outer loop
      vertex -1.9445 53.9101 1.5
      vertex -1.64989 54.0867 0
      vertex -1.9445 53.9101 0
    endloop
  endfacet
  facet normal -0.595699 0.803208 0
    outer loop
      vertex -1.9445 53.9101 1.5
      vertex -2.22038 53.7055 0
      vertex -2.22038 53.7055 1.5
    endloop
  endfacet
  facet normal -0.671559 0.740951 0
    outer loop
      vertex -2.22038 53.7055 0
      vertex -2.47487 53.4749 1.5
      vertex -2.22038 53.7055 1.5
    endloop
  endfacet
  facet normal 0.989177 0.14673 -0
    outer loop
      vertex 43.4831 51.3431 0
      vertex 43.4327 51.6828 1.5
      vertex 43.4831 51.3431 1.5
    endloop
  endfacet
  facet normal 0 0 1
    outer loop
      vertex 43.4327 51.6828 1.5
      vertex 43.5 51 1.5
      vertex 43.4831 51.3431 1.5
    endloop
  endfacet
  facet normal 0.970031 0.24298 0
    outer loop
      vertex 43.4327 51.6828 1.5
      vertex 43.3493 52.016 0
      vertex 43.3493 52.016 1.5
    endloop
  endfacet
  facet normal 0.941544 0.33689 -0
    outer loop
      vertex 43.3493 52.016 0
      vertex 43.2336 52.3394 1.5
      vertex 43.3493 52.016 1.5
    endloop
  endfacet
  facet normal 0.857729 0.514103 0
    outer loop
      vertex 43.0867 52.6499 1.5
      vertex 42.9101 52.9445 0
      vertex 42.9101 52.9445 1.5
    endloop
  endfacet
  facet normal 0.803208 0.595699 -0
    outer loop
      vertex 42.9101 52.9445 0
      vertex 42.7055 53.2204 1.5
      vertex 42.9101 52.9445 1.5
    endloop
  endfacet
  facet normal -0.740951 -0.671559 0
    outer loop
      vertex -2.70554 -2.22038 1.5
      vertex -2.47487 -2.47487 0
      vertex -2.47487 -2.47487 1.5
    endloop
  endfacet
  facet normal -0.671559 -0.740951 0
    outer loop
      vertex -2.47487 -2.47487 0
      vertex -2.22038 -2.70554 1.5
      vertex -2.47487 -2.47487 1.5
    endloop
  endfacet
  facet normal -0.33689 -0.941544 0
    outer loop
      vertex -1.33939 -3.23358 0
      vertex -1.016 -3.34929 1.5
      vertex -1.33939 -3.23358 1.5
    endloop
  endfacet
  facet normal 0 0 1
    outer loop
      vertex -1.016 -3.34929 1.5
      vertex -1.64989 -3.08672 1.5
      vertex -1.33939 -3.23358 1.5
    endloop
  endfacet
  facet normal -0.14673 -0.989177 0
    outer loop
      vertex -0.682816 -3.43275 1.5
      vertex -0.34306 -3.48315 0
      vertex -0.34306 -3.48315 1.5
    endloop
  endfacet
  facet normal -0.0490677 -0.998795 0
    outer loop
      vertex -0.34306 -3.48315 0
      vertex -6.42918e-016 -3.5 1.5
      vertex -0.34306 -3.48315 1.5
    endloop
  endfacet
  facet normal 0.33689 -0.941544 0
    outer loop
      vertex 41.016 -3.34929 1.5
      vertex 41.016 -3.34929 0
      vertex 41.3394 -3.23358 1.5
    endloop
  endfacet
  facet normal 0 0 1
    outer loop
      vertex 41.016 -3.34929 1.5
      vertex 40.3431 -3.48315 1.5
      vertex 40.6828 -3.43275 1.5
    endloop
  endfacet
  facet normal 0.427555 -0.903989 0
    outer loop
      vertex 41.6499 -3.08672 0
      vertex 41.3394 -3.23358 1.5
      vertex 41.3394 -3.23358 0
    endloop
  endfacet
  facet normal 0.427555 -0.903989 0
    outer loop
      vertex 41.6499 -3.08672 0
      vertex 41.6499 -3.08672 1.5
      vertex 41.3394 -3.23358 1.5
    endloop
  endfacet
  facet normal 0 0 1
    outer loop
      vertex 41.016 -3.34929 1.5
      vertex 40 -3.5 1.5
      vertex 40.3431 -3.48315 1.5
    endloop
  endfacet
  facet normal 0.0490677 -0.998795 0
    outer loop
      vertex 40 -3.5 1.5
      vertex 40 -3.5 0
      vertex 40.3431 -3.48315 1.5
    endloop
  endfacet
  facet normal 0.671559 -0.740951 0
    outer loop
      vertex 42.4749 -2.47487 1.5
      vertex 42.2204 -2.70554 0
      vertex 42.4749 -2.47487 0
    endloop
  endfacet
  facet normal 0 0 -1
    outer loop
      vertex 42.2204 -2.70554 0
      vertex 42.7055 -2.22038 0
      vertex 42.4749 -2.47487 0
    endloop
  endfacet
  facet normal 0.595699 -0.803208 0
    outer loop
      vertex 42.2204 -2.70554 0
      vertex 41.9445 -2.91014 1.5
      vertex 41.9445 -2.91014 0
    endloop
  endfacet
  facet normal 0.514103 -0.857729 0
    outer loop
      vertex 41.9445 -2.91014 1.5
      vertex 41.6499 -3.08672 0
      vertex 41.9445 -2.91014 0
    endloop
  endfacet
  facet normal 0 0 -1
    outer loop
      vertex 41.6499 54.0867 0
      vertex 40.6828 54.4327 0
      vertex 41.3394 54.2336 0
    endloop
  endfacet
  facet normal 0 0 1
    outer loop
      vertex 40.3431 54.4831 1.5
      vertex 41.016 54.3493 1.5
      vertex 40.6828 54.4327 1.5
    endloop
  endfacet
  facet normal 0 0 -1
    outer loop
      vertex 40.6828 54.4327 0
      vertex 40 54.5 0
      vertex 40.3431 54.4831 0
    endloop
  endfacet
  facet normal 0.0490677 0.998795 0
    outer loop
      vertex 40 54.5 0
      vertex 40.3431 54.4831 1.5
      vertex 40.3431 54.4831 0
    endloop
  endfacet
  facet normal 0.595699 0.803208 0
    outer loop
      vertex 41.9445 53.9101 1.5
      vertex 42.2204 53.7055 0
      vertex 41.9445 53.9101 0
    endloop
  endfacet
  facet normal 0 0 -1
    outer loop
      vertex 42.2204 53.7055 0
      vertex 41.6499 54.0867 0
      vertex 41.9445 53.9101 0
    endloop
  endfacet
  facet normal 0.671559 0.740951 0
    outer loop
      vertex 42.2204 53.7055 0
      vertex 42.4749 53.4749 1.5
      vertex 42.4749 53.4749 0
    endloop
  endfacet
  facet normal 0.740951 0.671559 0
    outer loop
      vertex 42.4749 53.4749 1.5
      vertex 42.7055 53.2204 0
      vertex 42.4749 53.4749 0
    endloop
  endfacet
  facet normal -0.24298 0.970031 0
    outer loop
      vertex -1.016 54.3493 0
      vertex -0.682816 54.4327 1.5
      vertex -0.682816 54.4327 0
    endloop
  endfacet
  facet normal -0.14673 0.989177 0
    outer loop
      vertex -0.682816 54.4327 1.5
      vertex -0.34306 54.4831 0
      vertex -0.682816 54.4327 0
    endloop
  endfacet
  facet normal -0.24298 0.970031 0
    outer loop
      vertex -0.682816 54.4327 1.5
      vertex -1.016 54.3493 0
      vertex -1.016 54.3493 1.5
    endloop
  endfacet
  facet normal -0.33689 0.941544 0
    outer loop
      vertex -1.016 54.3493 0
      vertex -1.33939 54.2336 1.5
      vertex -1.016 54.3493 1.5
    endloop
  endfacet
  facet normal 0 0 1
    outer loop
      vertex -0.682816 54.4327 1.5
      vertex 2.14306e-016 54.5 1.5
      vertex -0.34306 54.4831 1.5
    endloop
  endfacet
  facet normal -0.0490677 0.998795 0
    outer loop
      vertex 2.14306e-016 54.5 1.5
      vertex -0.34306 54.4831 0
      vertex -0.34306 54.4831 1.5
    endloop
  endfacet
  facet normal 0.33689 -0.941544 0
    outer loop
      vertex 41.3394 -3.23358 1.5
      vertex 41.016 -3.34929 0
      vertex 41.3394 -3.23358 0
    endloop
  endfacet
  facet normal 0 0 -1
    outer loop
      vertex 41.016 -3.34929 0
      vertex 41.6499 -3.08672 0
      vertex 41.3394 -3.23358 0
    endloop
  endfacet
  facet normal 0.14673 -0.989177 0
    outer loop
      vertex 40.3431 -3.48315 1.5
      vertex 40.3431 -3.48315 0
      vertex 40.6828 -3.43275 1.5
    endloop
  endfacet
  facet normal 0.0490677 -0.998795 0
    outer loop
      vertex 40.3431 -3.48315 1.5
      vertex 40 -3.5 0
      vertex 40.3431 -3.48315 0
    endloop
  endfacet
  facet normal 0.24298 -0.970031 0
    outer loop
      vertex 41.016 -3.34929 0
      vertex 40.6828 -3.43275 1.5
      vertex 40.6828 -3.43275 0
    endloop
  endfacet
  facet normal 0.24298 -0.970031 0
    outer loop
      vertex 41.016 -3.34929 0
      vertex 41.016 -3.34929 1.5
      vertex 40.6828 -3.43275 1.5
    endloop
  endfacet
  facet normal 0.24298 0.970031 0
    outer loop
      vertex 40.6828 54.4327 0
      vertex 41.016 54.3493 1.5
      vertex 41.016 54.3493 0
    endloop
  endfacet
  facet normal 0 0 1
    outer loop
      vertex 41.016 54.3493 1.5
      vertex 41.6499 54.0867 1.5
      vertex 41.3394 54.2336 1.5
    endloop
  endfacet
  facet normal 0.24298 0.970031 0
    outer loop
      vertex 41.016 54.3493 1.5
      vertex 40.6828 54.4327 0
      vertex 40.6828 54.4327 1.5
    endloop
  endfacet
  facet normal 0.14673 0.989177 -0
    outer loop
      vertex 40.6828 54.4327 0
      vertex 40.3431 54.4831 1.5
      vertex 40.6828 54.4327 1.5
    endloop
  endfacet
  facet normal 0.14673 -0.989177 0
    outer loop
      vertex 40.6828 -3.43275 1.5
      vertex 40.3431 -3.48315 0
      vertex 40.6828 -3.43275 0
    endloop
  endfacet
  facet normal 0 0 -1
    outer loop
      vertex 40.3431 -3.48315 0
      vertex 41.016 -3.34929 0
      vertex 40.6828 -3.43275 0
    endloop
  endfacet
  facet normal 0.33689 0.941544 0
    outer loop
      vertex 41.016 54.3493 1.5
      vertex 41.3394 54.2336 1.5
      vertex 41.3394 54.2336 0
    endloop
  endfacet
  facet normal 0.427555 0.903989 0
    outer loop
      vertex 41.3394 54.2336 1.5
      vertex 41.6499 54.0867 0
      vertex 41.3394 54.2336 0
    endloop
  endfacet
  facet normal 0.33689 0.941544 0
    outer loop
      vertex 41.016 54.3493 1.5
      vertex 41.3394 54.2336 0
      vertex 41.016 54.3493 0
    endloop
  endfacet
  facet normal 0 0 -1
    outer loop
      vertex 41.3394 54.2336 0
      vertex 40.6828 54.4327 0
      vertex 41.016 54.3493 0
    endloop
  endfacet
endsolid OpenSCAD_Model
