solid OpenSCAD_Model
  facet normal -0 0 -1
    outer loop
      vertex 3.43275 0.682816 0
      vertex -3.43275 -0.682816 0
      vertex 43.4327 51.6828 0
    endloop
  endfacet
  facet normal 0 0 -1
    outer loop
      vertex 43.4327 51.6828 0
      vertex -2.47487 53.4749 0
      vertex 40 54.5 0
    endloop
  endfacet
  facet normal 0 -0 1
    outer loop
      vertex 3.43275 0.682816 2
      vertex 43.4327 0.682816 2
      vertex -0.682816 54.4327 2
    endloop
  endfacet
  facet normal 0 -0 -1
    outer loop
      vertex 3.43275 0.682816 0
      vertex 43.4327 51.6828 0
      vertex 0.682816 -3.43275 0
    endloop
  endfacet
  facet normal -0 0 1
    outer loop
      vertex 3.43275 0.682816 2
      vertex 3.5 0 2
      vertex 43.4327 0.682816 2
    endloop
  endfacet
  facet normal -0 0 1
    outer loop
      vertex 3.5 0 2
      vertex -3.43275 -0.682816 2
      vertex 43.4327 0.682816 2
    endloop
  endfacet
  facet normal 0 0 -1
    outer loop
      vertex -1.9445 -2.91014 0
      vertex 0.682816 -3.43275 0
      vertex -0.682816 -3.43275 0
    endloop
  endfacet
  facet normal 0 0 1
    outer loop
      vertex 3.5 0 2
      vertex 3.43275 0.682816 2
      vertex -3.43275 -0.682816 2
    endloop
  endfacet
  facet normal 0 0 -1
    outer loop
      vertex -3.43275 -0.682816 0
      vertex 0.682816 -3.43275 0
      vertex -1.9445 -2.91014 0
    endloop
  endfacet
  facet normal 0 0 -1
    outer loop
      vertex -3.43275 -0.682816 0
      vertex 3.43275 0.682816 0
      vertex 0.682816 -3.43275 0
    endloop
  endfacet
  facet normal 0 0 1
    outer loop
      vertex 42.4749 53.4749 2
      vertex 43.4327 0.682816 2
      vertex 43.5 51 2
    endloop
  endfacet
  facet normal -0.995185 -0.0980171 0
    outer loop
      vertex -3.43275 -0.682816 0
      vertex -3.43275 -0.682816 2
      vertex -3.5 4.28612e-016 0
    endloop
  endfacet
  facet normal 0 -0 1
    outer loop
      vertex -3.43275 -0.682816 2
      vertex -0.682816 54.4327 2
      vertex -3.5 51 2
    endloop
  endfacet
  facet normal 0 0 1
    outer loop
      vertex -3.43275 -0.682816 2
      vertex 3.43275 0.682816 2
      vertex -0.682816 54.4327 2
    endloop
  endfacet
  facet normal -0.95694 -0.290285 0
    outer loop
      vertex -3.43275 -0.682816 2
      vertex -3.23358 -1.33939 0
      vertex -3.23358 -1.33939 2
    endloop
  endfacet
  facet normal 0 0 -1
    outer loop
      vertex -3.43275 -0.682816 0
      vertex -1.9445 -2.91014 0
      vertex -2.91014 -1.9445 0
    endloop
  endfacet
  facet normal 0 0 1
    outer loop
      vertex 43.4327 0.682816 2
      vertex 40 -3.5 2
      vertex 42.9101 -1.9445 2
    endloop
  endfacet
  facet normal 0 0 1
    outer loop
      vertex 43.4327 0.682816 2
      vertex -3.43275 -0.682816 2
      vertex 40 -3.5 2
    endloop
  endfacet
  facet normal 0 0 -1
    outer loop
      vertex 0.682816 -3.43275 0
      vertex 42.9101 -1.9445 0
      vertex 40 -3.5 0
    endloop
  endfacet
  facet normal 0 0 -1
    outer loop
      vertex 0.682816 -3.43275 0
      vertex 43.4327 51.6828 0
      vertex 42.9101 -1.9445 0
    endloop
  endfacet
  facet normal 0 0 1
    outer loop
      vertex -0.682816 54.4327 2
      vertex 43.4327 0.682816 2
      vertex 42.4749 53.4749 2
    endloop
  endfacet
  facet normal 0 0 -1
    outer loop
      vertex 41.9445 53.9101 0
      vertex 40 54.5 0
      vertex 40.6828 54.4327 0
    endloop
  endfacet
  facet normal 0.0980171 0.995185 -0
    outer loop
      vertex 40.6828 54.4327 0
      vertex 40 54.5 2
      vertex 40.6828 54.4327 2
    endloop
  endfacet
  facet normal -0 0 -1
    outer loop
      vertex 43.4327 51.6828 0
      vertex -3.43275 -0.682816 0
      vertex -2.47487 53.4749 0
    endloop
  endfacet
  facet normal 0 0 1
    outer loop
      vertex 42.9101 -1.9445 2
      vertex 41.9445 -2.91014 2
      vertex 42.4749 -2.47487 2
    endloop
  endfacet
  facet normal -0.881921 -0.471397 0
    outer loop
      vertex -3.23358 -1.33939 0
      vertex -2.91014 -1.9445 0
      vertex -3.23358 -1.33939 2
    endloop
  endfacet
  facet normal 0 0 -1
    outer loop
      vertex -1.9445 -2.91014 0
      vertex -0.682816 -3.43275 0
      vertex -1.33939 -3.23358 0
    endloop
  endfacet
  facet normal 0 0 -1
    outer loop
      vertex -3.43275 -0.682816 0
      vertex -2.91014 -1.9445 0
      vertex -3.23358 -1.33939 0
    endloop
  endfacet
  facet normal 0.0980171 -0.995185 0
    outer loop
      vertex 40 -3.5 2
      vertex 40 -3.5 0
      vertex 40.6828 -3.43275 2
    endloop
  endfacet
  facet normal 0 0 -1
    outer loop
      vertex 42.9101 -1.9445 0
      vertex 43.4327 51.6828 0
      vertex 43.5 0 0
    endloop
  endfacet
  facet normal 0.995185 -0.0980171 0
    outer loop
      vertex 43.4327 -0.682816 0
      vertex 43.5 0 0
      vertex 43.5 0 2
    endloop
  endfacet
  facet normal 0 0 -1
    outer loop
      vertex 42.9101 -1.9445 0
      vertex 43.4327 -0.682816 0
      vertex 43.2336 -1.33939 0
    endloop
  endfacet
  facet normal 0 0 1
    outer loop
      vertex 40 -3.5 2
      vertex -1.33939 -3.23358 2
      vertex -6.42918e-016 -3.5 2
    endloop
  endfacet
  facet normal 0 0 -1
    outer loop
      vertex -0.682816 -3.43275 0
      vertex 0.682816 -3.43275 0
      vertex 40 -3.5 0
    endloop
  endfacet
  facet normal 0 0 1
    outer loop
      vertex 43.4327 0.682816 2
      vertex 42.9101 -1.9445 2
      vertex 43.5 0 2
    endloop
  endfacet
  facet normal 0.995185 0.0980171 0
    outer loop
      vertex 43.4327 51.6828 0
      vertex 43.5 51 2
      vertex 43.5 51 0
    endloop
  endfacet
  facet normal -0.290285 0.95694 0
    outer loop
      vertex -1.33939 54.2336 0
      vertex -0.682816 54.4327 2
      vertex -0.682816 54.4327 0
    endloop
  endfacet
  facet normal 0 0 -1
    outer loop
      vertex -2.47487 53.4749 0
      vertex -3.43275 -0.682816 0
      vertex -3.5 51 0
    endloop
  endfacet
  facet normal -0 0 1
    outer loop
      vertex -0.682816 54.4327 2
      vertex 42.4749 53.4749 2
      vertex 40 54.5 2
    endloop
  endfacet
  facet normal 0 0 -1
    outer loop
      vertex 43.4327 51.6828 0
      vertex 40 54.5 0
      vertex 41.9445 53.9101 0
    endloop
  endfacet
  facet normal -0.0980171 -0.995185 0
    outer loop
      vertex -0.682816 -3.43275 0
      vertex -6.42918e-016 -3.5 2
      vertex -0.682816 -3.43275 2
    endloop
  endfacet
  facet normal 0 0 1
    outer loop
      vertex 40 -3.5 2
      vertex -3.43275 -0.682816 2
      vertex -1.33939 -3.23358 2
    endloop
  endfacet
  facet normal -0.634393 -0.77301 0
    outer loop
      vertex -1.9445 -2.91014 0
      vertex -2.47487 -2.47487 2
      vertex -2.47487 -2.47487 0
    endloop
  endfacet
  facet normal -0.95694 -0.290285 -0
    outer loop
      vertex -3.43275 -0.682816 2
      vertex -3.43275 -0.682816 0
      vertex -3.23358 -1.33939 0
    endloop
  endfacet
  facet normal 0.77301 -0.634393 0
    outer loop
      vertex 42.9101 -1.9445 0
      vertex 42.9101 -1.9445 2
      vertex 42.4749 -2.47487 2
    endloop
  endfacet
  facet normal 0 0 1
    outer loop
      vertex 42.9101 -1.9445 2
      vertex 40 -3.5 2
      vertex 41.9445 -2.91014 2
    endloop
  endfacet
  facet normal 0 0 -1
    outer loop
      vertex 42.9101 -1.9445 0
      vertex 43.5 0 0
      vertex 43.4327 -0.682816 0
    endloop
  endfacet
  facet normal 0.881921 -0.471397 0
    outer loop
      vertex 42.9101 -1.9445 2
      vertex 43.2336 -1.33939 0
      vertex 43.2336 -1.33939 2
    endloop
  endfacet
  facet normal 0 0 -1
    outer loop
      vertex -0.682816 -3.43275 0
      vertex 40 -3.5 0
      vertex -6.42918e-016 -3.5 0
    endloop
  endfacet
  facet normal 0 -1 0
    outer loop
      vertex 40 -3.5 0
      vertex 40 -3.5 2
      vertex -6.42918e-016 -3.5 0
    endloop
  endfacet
  facet normal 0 0 1
    outer loop
      vertex 42.4749 53.4749 2
      vertex 43.5 51 2
      vertex 43.2336 52.3394 2
    endloop
  endfacet
  facet normal 0.95694 0.290285 -0
    outer loop
      vertex 43.4327 51.6828 0
      vertex 43.2336 52.3394 2
      vertex 43.4327 51.6828 2
    endloop
  endfacet
  facet normal 1 0 0
    outer loop
      vertex 43.5 0 0
      vertex 43.5 51 2
      vertex 43.5 0 2
    endloop
  endfacet
  facet normal 0 0 1
    outer loop
      vertex 43.5 51 2
      vertex 43.4327 0.682816 2
      vertex 43.5 0 2
    endloop
  endfacet
  facet normal 1 0 0
    outer loop
      vertex 43.5 51 2
      vertex 43.5 0 0
      vertex 43.5 51 0
    endloop
  endfacet
  facet normal 0 0 -1
    outer loop
      vertex 43.5 0 0
      vertex 43.4327 51.6828 0
      vertex 43.5 51 0
    endloop
  endfacet
  facet normal -0.77301 0.634393 0
    outer loop
      vertex -2.91014 52.9445 2
      vertex -2.47487 53.4749 0
      vertex -2.91014 52.9445 0
    endloop
  endfacet
  facet normal 0 0 -1
    outer loop
      vertex -3.5 51 0
      vertex -3.43275 -0.682816 0
      vertex -3.5 4.28612e-016 0
    endloop
  endfacet
  facet normal -1 0 0
    outer loop
      vertex -3.5 51 0
      vertex -3.5 4.28612e-016 0
      vertex -3.5 51 2
    endloop
  endfacet
  facet normal 0 0 1
    outer loop
      vertex -3.43275 -0.682816 2
      vertex -3.5 51 2
      vertex -3.5 4.28612e-016 2
    endloop
  endfacet
  facet normal -0 0 -1
    outer loop
      vertex 40 54.5 0
      vertex -2.47487 53.4749 0
      vertex 2.14306e-016 54.5 0
    endloop
  endfacet
  facet normal 0 0 1
    outer loop
      vertex -2.91014 52.9445 2
      vertex -0.682816 54.4327 2
      vertex -1.9445 53.9101 2
    endloop
  endfacet
  facet normal 0 1 -0
    outer loop
      vertex 40 54.5 0
      vertex 2.14306e-016 54.5 0
      vertex 40 54.5 2
    endloop
  endfacet
  facet normal 0 0 1
    outer loop
      vertex -0.682816 54.4327 2
      vertex 40 54.5 2
      vertex 2.14306e-016 54.5 2
    endloop
  endfacet
  facet normal 0 0 -1
    outer loop
      vertex 43.4327 51.6828 0
      vertex 41.9445 53.9101 0
      vertex 42.9101 52.9445 0
    endloop
  endfacet
  facet normal 0 0 -1
    outer loop
      vertex 42.9101 52.9445 0
      vertex 41.9445 53.9101 0
      vertex 42.4749 53.4749 0
    endloop
  endfacet
  facet normal -0.471397 -0.881921 0
    outer loop
      vertex -1.9445 -2.91014 0
      vertex -1.33939 -3.23358 2
      vertex -1.9445 -2.91014 2
    endloop
  endfacet
  facet normal 0 0 1
    outer loop
      vertex -1.33939 -3.23358 2
      vertex -3.43275 -0.682816 2
      vertex -2.47487 -2.47487 2
    endloop
  endfacet
  facet normal -0.290285 -0.95694 0
    outer loop
      vertex -0.682816 -3.43275 0
      vertex -1.33939 -3.23358 2
      vertex -1.33939 -3.23358 0
    endloop
  endfacet
  facet normal -0.471397 -0.881921 -0
    outer loop
      vertex -1.33939 -3.23358 2
      vertex -1.9445 -2.91014 0
      vertex -1.33939 -3.23358 0
    endloop
  endfacet
  facet normal 0.471397 -0.881921 0
    outer loop
      vertex 41.9445 -2.91014 2
      vertex 41.3394 -3.23358 2
      vertex 41.9445 -2.91014 0
    endloop
  endfacet
  facet normal 0 0 1
    outer loop
      vertex 41.9445 -2.91014 2
      vertex 40 -3.5 2
      vertex 41.3394 -3.23358 2
    endloop
  endfacet
  facet normal 0.0980171 -0.995185 0
    outer loop
      vertex 40.6828 -3.43275 2
      vertex 40 -3.5 0
      vertex 40.6828 -3.43275 0
    endloop
  endfacet
  facet normal 0 0 -1
    outer loop
      vertex 40 -3.5 0
      vertex 42.9101 -1.9445 0
      vertex 41.9445 -2.91014 0
    endloop
  endfacet
  facet normal 0.634393 -0.77301 0
    outer loop
      vertex 41.9445 -2.91014 2
      vertex 41.9445 -2.91014 0
      vertex 42.4749 -2.47487 2
    endloop
  endfacet
  facet normal 0.77301 -0.634393 0
    outer loop
      vertex 42.9101 -1.9445 0
      vertex 42.4749 -2.47487 2
      vertex 42.4749 -2.47487 0
    endloop
  endfacet
  facet normal 0.95694 -0.290285 0
    outer loop
      vertex 43.2336 -1.33939 0
      vertex 43.4327 -0.682816 0
      vertex 43.4327 -0.682816 2
    endloop
  endfacet
  facet normal 0.881921 -0.471397 0
    outer loop
      vertex 42.9101 -1.9445 2
      vertex 42.9101 -1.9445 0
      vertex 43.2336 -1.33939 0
    endloop
  endfacet
  facet normal -0.0980171 -0.995185 0
    outer loop
      vertex -0.682816 -3.43275 0
      vertex -6.42918e-016 -3.5 0
      vertex -6.42918e-016 -3.5 2
    endloop
  endfacet
  facet normal 0 -1 0
    outer loop
      vertex -6.42918e-016 -3.5 0
      vertex 40 -3.5 2
      vertex -6.42918e-016 -3.5 2
    endloop
  endfacet
  facet normal 0 0 1
    outer loop
      vertex 43.2336 52.3394 2
      vertex 43.5 51 2
      vertex 43.4327 51.6828 2
    endloop
  endfacet
  facet normal 0.995185 0.0980171 0
    outer loop
      vertex 43.5 51 2
      vertex 43.4327 51.6828 0
      vertex 43.4327 51.6828 2
    endloop
  endfacet
  facet normal 0.995185 -0.0980171 0
    outer loop
      vertex 43.4327 -0.682816 0
      vertex 43.5 0 2
      vertex 43.4327 -0.682816 2
    endloop
  endfacet
  facet normal 0 0 1
    outer loop
      vertex 43.5 0 2
      vertex 42.9101 -1.9445 2
      vertex 43.4327 -0.682816 2
    endloop
  endfacet
  facet normal 0 0 -1
    outer loop
      vertex -2.47487 53.4749 0
      vertex -3.5 51 0
      vertex -3.23358 52.3394 0
    endloop
  endfacet
  facet normal 0 0 1
    outer loop
      vertex -3.5 51 2
      vertex -0.682816 54.4327 2
      vertex -2.91014 52.9445 2
    endloop
  endfacet
  facet normal -1 -0 0
    outer loop
      vertex -3.5 51 2
      vertex -3.5 4.28612e-016 0
      vertex -3.5 4.28612e-016 2
    endloop
  endfacet
  facet normal -0.995185 -0.0980171 0
    outer loop
      vertex -3.5 4.28612e-016 0
      vertex -3.43275 -0.682816 2
      vertex -3.5 4.28612e-016 2
    endloop
  endfacet
  facet normal 0 0 -1
    outer loop
      vertex 2.14306e-016 54.5 0
      vertex -2.47487 53.4749 0
      vertex -1.33939 54.2336 0
    endloop
  endfacet
  facet normal -0.471397 0.881921 0
    outer loop
      vertex -1.33939 54.2336 0
      vertex -1.9445 53.9101 2
      vertex -1.33939 54.2336 2
    endloop
  endfacet
  facet normal 0 1 0
    outer loop
      vertex 40 54.5 2
      vertex 2.14306e-016 54.5 0
      vertex 2.14306e-016 54.5 2
    endloop
  endfacet
  facet normal -0.0980171 0.995185 0
    outer loop
      vertex 2.14306e-016 54.5 0
      vertex -0.682816 54.4327 2
      vertex 2.14306e-016 54.5 2
    endloop
  endfacet
  facet normal 0.0980171 0.995185 -0
    outer loop
      vertex 40 54.5 0
      vertex 40 54.5 2
      vertex 40.6828 54.4327 0
    endloop
  endfacet
  facet normal 0 0 1
    outer loop
      vertex 40 54.5 2
      vertex 42.4749 53.4749 2
      vertex 41.3394 54.2336 2
    endloop
  endfacet
  facet normal 0.77301 0.634393 -0
    outer loop
      vertex 42.9101 52.9445 0
      vertex 42.4749 53.4749 2
      vertex 42.9101 52.9445 2
    endloop
  endfacet
  facet normal 0.881921 0.471397 0
    outer loop
      vertex 42.9101 52.9445 0
      vertex 43.2336 52.3394 2
      vertex 43.2336 52.3394 0
    endloop
  endfacet
  facet normal -0.881921 -0.471397 0
    outer loop
      vertex -3.23358 -1.33939 2
      vertex -2.91014 -1.9445 0
      vertex -2.91014 -1.9445 2
    endloop
  endfacet
  facet normal 0 0 1
    outer loop
      vertex -2.47487 -2.47487 2
      vertex -3.43275 -0.682816 2
      vertex -3.23358 -1.33939 2
    endloop
  endfacet
  facet normal -0.77301 -0.634393 -0
    outer loop
      vertex -2.47487 -2.47487 2
      vertex -2.91014 -1.9445 0
      vertex -2.47487 -2.47487 0
    endloop
  endfacet
  facet normal 0 0 -1
    outer loop
      vertex -2.91014 -1.9445 0
      vertex -1.9445 -2.91014 0
      vertex -2.47487 -2.47487 0
    endloop
  endfacet
  facet normal 0 0 1
    outer loop
      vertex -1.33939 -3.23358 2
      vertex -2.47487 -2.47487 2
      vertex -1.9445 -2.91014 2
    endloop
  endfacet
  facet normal -0.634393 -0.77301 0
    outer loop
      vertex -2.47487 -2.47487 2
      vertex -1.9445 -2.91014 0
      vertex -1.9445 -2.91014 2
    endloop
  endfacet
  facet normal 0 0 -1
    outer loop
      vertex 40 -3.5 0
      vertex 41.9445 -2.91014 0
      vertex 41.3394 -3.23358 0
    endloop
  endfacet
  facet normal 0 0 1
    outer loop
      vertex 41.3394 -3.23358 2
      vertex 40 -3.5 2
      vertex 40.6828 -3.43275 2
    endloop
  endfacet
  facet normal 0.471397 -0.881921 0
    outer loop
      vertex 41.9445 -2.91014 0
      vertex 41.3394 -3.23358 2
      vertex 41.3394 -3.23358 0
    endloop
  endfacet
  facet normal 0.290285 -0.95694 0
    outer loop
      vertex 41.3394 -3.23358 2
      vertex 40.6828 -3.43275 2
      vertex 41.3394 -3.23358 0
    endloop
  endfacet
  facet normal 0.634393 -0.77301 0
    outer loop
      vertex 42.4749 -2.47487 2
      vertex 41.9445 -2.91014 0
      vertex 42.4749 -2.47487 0
    endloop
  endfacet
  facet normal 0 0 -1
    outer loop
      vertex 41.9445 -2.91014 0
      vertex 42.9101 -1.9445 0
      vertex 42.4749 -2.47487 0
    endloop
  endfacet
  facet normal 0 0 1
    outer loop
      vertex -6.42918e-016 -3.5 2
      vertex -1.33939 -3.23358 2
      vertex -0.682816 -3.43275 2
    endloop
  endfacet
  facet normal -0.290285 -0.95694 0
    outer loop
      vertex -1.33939 -3.23358 2
      vertex -0.682816 -3.43275 0
      vertex -0.682816 -3.43275 2
    endloop
  endfacet
  facet normal 0.95694 -0.290285 0
    outer loop
      vertex 43.2336 -1.33939 0
      vertex 43.4327 -0.682816 2
      vertex 43.2336 -1.33939 2
    endloop
  endfacet
  facet normal 0 0 1
    outer loop
      vertex 43.4327 -0.682816 2
      vertex 42.9101 -1.9445 2
      vertex 43.2336 -1.33939 2
    endloop
  endfacet
  facet normal 0 0 -1
    outer loop
      vertex -3.23358 52.3394 0
      vertex -3.5 51 0
      vertex -3.43275 51.6828 0
    endloop
  endfacet
  facet normal -0.881921 0.471397 0
    outer loop
      vertex -2.91014 52.9445 2
      vertex -3.23358 52.3394 0
      vertex -3.23358 52.3394 2
    endloop
  endfacet
  facet normal 0 0 -1
    outer loop
      vertex -1.33939 54.2336 0
      vertex -2.47487 53.4749 0
      vertex -1.9445 53.9101 0
    endloop
  endfacet
  facet normal 0 0 1
    outer loop
      vertex -2.91014 52.9445 2
      vertex -1.9445 53.9101 2
      vertex -2.47487 53.4749 2
    endloop
  endfacet
  facet normal -0.0980171 0.995185 0
    outer loop
      vertex -0.682816 54.4327 2
      vertex 2.14306e-016 54.5 0
      vertex -0.682816 54.4327 0
    endloop
  endfacet
  facet normal 0 0 -1
    outer loop
      vertex 2.14306e-016 54.5 0
      vertex -1.33939 54.2336 0
      vertex -0.682816 54.4327 0
    endloop
  endfacet
  facet normal 0 0 1
    outer loop
      vertex 41.3394 54.2336 2
      vertex 42.4749 53.4749 2
      vertex 41.9445 53.9101 2
    endloop
  endfacet
  facet normal 0.290285 0.95694 0
    outer loop
      vertex 40.6828 54.4327 0
      vertex 41.3394 54.2336 2
      vertex 41.3394 54.2336 0
    endloop
  endfacet
  facet normal 0.634393 0.77301 0
    outer loop
      vertex 41.9445 53.9101 0
      vertex 42.4749 53.4749 2
      vertex 42.4749 53.4749 0
    endloop
  endfacet
  facet normal 0.77301 0.634393 0
    outer loop
      vertex 42.4749 53.4749 2
      vertex 42.9101 52.9445 0
      vertex 42.4749 53.4749 0
    endloop
  endfacet
  facet normal 0 0 1
    outer loop
      vertex 42.4749 53.4749 2
      vertex 43.2336 52.3394 2
      vertex 42.9101 52.9445 2
    endloop
  endfacet
  facet normal 0.881921 0.471397 0
    outer loop
      vertex 43.2336 52.3394 2
      vertex 42.9101 52.9445 0
      vertex 42.9101 52.9445 2
    endloop
  endfacet
  facet normal 0.95694 0.290285 0
    outer loop
      vertex 43.2336 52.3394 2
      vertex 43.4327 51.6828 0
      vertex 43.2336 52.3394 0
    endloop
  endfacet
  facet normal 0 0 -1
    outer loop
      vertex 43.4327 51.6828 0
      vertex 42.9101 52.9445 0
      vertex 43.2336 52.3394 0
    endloop
  endfacet
  facet normal -0.77301 -0.634393 0
    outer loop
      vertex -2.91014 -1.9445 0
      vertex -2.47487 -2.47487 2
      vertex -2.91014 -1.9445 2
    endloop
  endfacet
  facet normal 0 0 1
    outer loop
      vertex -2.47487 -2.47487 2
      vertex -3.23358 -1.33939 2
      vertex -2.91014 -1.9445 2
    endloop
  endfacet
  facet normal 0 0 -1
    outer loop
      vertex 40 -3.5 0
      vertex 41.3394 -3.23358 0
      vertex 40.6828 -3.43275 0
    endloop
  endfacet
  facet normal 0.290285 -0.95694 0
    outer loop
      vertex 41.3394 -3.23358 0
      vertex 40.6828 -3.43275 2
      vertex 40.6828 -3.43275 0
    endloop
  endfacet
  facet normal 0 0 -1
    outer loop
      vertex -2.47487 53.4749 0
      vertex -3.23358 52.3394 0
      vertex -2.91014 52.9445 0
    endloop
  endfacet
  facet normal -0.881921 0.471397 0
    outer loop
      vertex -3.23358 52.3394 0
      vertex -2.91014 52.9445 2
      vertex -2.91014 52.9445 0
    endloop
  endfacet
  facet normal -0.995185 0.0980171 0
    outer loop
      vertex -3.5 51 0
      vertex -3.5 51 2
      vertex -3.43275 51.6828 0
    endloop
  endfacet
  facet normal -0.95694 0.290285 0
    outer loop
      vertex -3.23358 52.3394 0
      vertex -3.43275 51.6828 0
      vertex -3.23358 52.3394 2
    endloop
  endfacet
  facet normal -0.995185 0.0980171 0
    outer loop
      vertex -3.43275 51.6828 0
      vertex -3.5 51 2
      vertex -3.43275 51.6828 2
    endloop
  endfacet
  facet normal 0 0 1
    outer loop
      vertex -3.5 51 2
      vertex -2.91014 52.9445 2
      vertex -3.23358 52.3394 2
    endloop
  endfacet
  facet normal 0 0 1
    outer loop
      vertex -1.9445 53.9101 2
      vertex -0.682816 54.4327 2
      vertex -1.33939 54.2336 2
    endloop
  endfacet
  facet normal -0.290285 0.95694 0
    outer loop
      vertex -0.682816 54.4327 2
      vertex -1.33939 54.2336 0
      vertex -1.33939 54.2336 2
    endloop
  endfacet
  facet normal -0.634393 0.77301 0
    outer loop
      vertex -2.47487 53.4749 0
      vertex -1.9445 53.9101 2
      vertex -1.9445 53.9101 0
    endloop
  endfacet
  facet normal -0.471397 0.881921 0
    outer loop
      vertex -1.9445 53.9101 2
      vertex -1.33939 54.2336 0
      vertex -1.9445 53.9101 0
    endloop
  endfacet
  facet normal -0.634393 0.77301 0
    outer loop
      vertex -1.9445 53.9101 2
      vertex -2.47487 53.4749 0
      vertex -2.47487 53.4749 2
    endloop
  endfacet
  facet normal -0.77301 0.634393 0
    outer loop
      vertex -2.47487 53.4749 0
      vertex -2.91014 52.9445 2
      vertex -2.47487 53.4749 2
    endloop
  endfacet
  facet normal 0 0 1
    outer loop
      vertex 40 54.5 2
      vertex 41.3394 54.2336 2
      vertex 40.6828 54.4327 2
    endloop
  endfacet
  facet normal 0.290285 0.95694 0
    outer loop
      vertex 41.3394 54.2336 2
      vertex 40.6828 54.4327 0
      vertex 40.6828 54.4327 2
    endloop
  endfacet
  facet normal 0.634393 0.77301 0
    outer loop
      vertex 42.4749 53.4749 2
      vertex 41.9445 53.9101 0
      vertex 41.9445 53.9101 2
    endloop
  endfacet
  facet normal 0.471397 0.881921 -0
    outer loop
      vertex 41.9445 53.9101 0
      vertex 41.3394 54.2336 2
      vertex 41.9445 53.9101 2
    endloop
  endfacet
  facet normal 0.471397 0.881921 0
    outer loop
      vertex 41.3394 54.2336 2
      vertex 41.9445 53.9101 0
      vertex 41.3394 54.2336 0
    endloop
  endfacet
  facet normal 0 0 -1
    outer loop
      vertex 41.9445 53.9101 0
      vertex 40.6828 54.4327 0
      vertex 41.3394 54.2336 0
    endloop
  endfacet
  facet normal 0 0 1
    outer loop
      vertex -3.5 51 2
      vertex -3.23358 52.3394 2
      vertex -3.43275 51.6828 2
    endloop
  endfacet
  facet normal -0.95694 0.290285 0
    outer loop
      vertex -3.23358 52.3394 2
      vertex -3.43275 51.6828 0
      vertex -3.43275 51.6828 2
    endloop
  endfacet
endsolid OpenSCAD_Model
