solid OpenSCAD_Model
  facet normal -1 0 0
    outer loop
      vertex 0 36 0
      vertex 0 30.1729 2
      vertex 0 36 4
    endloop
  endfacet
  facet normal -1 0 0
    outer loop
      vertex 0 0 0
      vertex 0 30.1729 2
      vertex 0 36 0
    endloop
  endfacet
  facet normal -1 -0 0
    outer loop
      vertex 0 30.1729 2
      vertex 0 0 0
      vertex 0 0 2
    endloop
  endfacet
  facet normal -1 -0 0
    outer loop
      vertex 0 36 4
      vertex 0 30.1729 2
      vertex 0 30.1729 4
    endloop
  endfacet
  facet normal 0 0 1
    outer loop
      vertex 20 36 4
      vertex 18.9931 30.7112 4
      vertex 20 30.1729 4
    endloop
  endfacet
  facet normal 0 0 1
    outer loop
      vertex 20 36 4
      vertex 14.5846 32.0485 4
      vertex 18.9931 30.7112 4
    endloop
  endfacet
  facet normal 0 0 1
    outer loop
      vertex 20 36 4
      vertex 10 32.5 4
      vertex 14.5846 32.0485 4
    endloop
  endfacet
  facet normal -0 0 1
    outer loop
      vertex 0 36 4
      vertex 10 32.5 4
      vertex 20 36 4
    endloop
  endfacet
  facet normal 0 0 1
    outer loop
      vertex 10 32.5 4
      vertex 0 36 4
      vertex 5.41538 32.0485 4
    endloop
  endfacet
  facet normal 0 0 1
    outer loop
      vertex 0 36 4
      vertex 1.00694 30.7112 4
      vertex 5.41538 32.0485 4
    endloop
  endfacet
  facet normal 0 0 1
    outer loop
      vertex 1.00694 30.7112 4
      vertex 0 36 4
      vertex 0 30.1729 4
    endloop
  endfacet
  facet normal 1 0 0
    outer loop
      vertex 20 30.1729 2
      vertex 20 36 4
      vertex 20 30.1729 4
    endloop
  endfacet
  facet normal 1 0 0
    outer loop
      vertex 20 36 4
      vertex 20 30.1729 2
      vertex 20 36 0
    endloop
  endfacet
  facet normal 1 0 0
    outer loop
      vertex 20 0 0
      vertex 20 30.1729 2
      vertex 20 0 2
    endloop
  endfacet
  facet normal 1 0 0
    outer loop
      vertex 20 30.1729 2
      vertex 20 0 0
      vertex 20 36 0
    endloop
  endfacet
  facet normal 0 1 -0
    outer loop
      vertex 20 36 0
      vertex 0 36 4
      vertex 20 36 4
    endloop
  endfacet
  facet normal 0 1 0
    outer loop
      vertex 0 36 4
      vertex 20 36 0
      vertex 0 36 0
    endloop
  endfacet
  facet normal 0 0 -1
    outer loop
      vertex 10 8.5 0
      vertex 20 36 0
      vertex 20 0 0
    endloop
  endfacet
  facet normal 0 0 -1
    outer loop
      vertex 0 36 0
      vertex 10 8.5 0
      vertex 0 0 0
    endloop
  endfacet
  facet normal 0 0 -1
    outer loop
      vertex 10 8.5 0
      vertex 0 36 0
      vertex 20 36 0
    endloop
  endfacet
  facet normal -0.647648 -0.761939 0
    outer loop
      vertex 10 8.5 0
      vertex 20 0 2
      vertex 10 8.5 2
    endloop
  endfacet
  facet normal -0.647648 -0.761939 -0
    outer loop
      vertex 20 0 2
      vertex 10 8.5 0
      vertex 20 0 0
    endloop
  endfacet
  facet normal 0.647648 -0.761939 0
    outer loop
      vertex 0 0 0
      vertex 10 8.5 2
      vertex 0 0 2
    endloop
  endfacet
  facet normal 0.647648 -0.761939 0
    outer loop
      vertex 10 8.5 2
      vertex 0 0 0
      vertex 10 8.5 0
    endloop
  endfacet
  facet normal 0.0980171 -0.995185 0
    outer loop
      vertex 5.41538 32.0485 2
      vertex 10 32.5 4
      vertex 5.41538 32.0485 4
    endloop
  endfacet
  facet normal 0.0980171 -0.995185 0
    outer loop
      vertex 10 32.5 4
      vertex 5.41538 32.0485 2
      vertex 10 32.5 2
    endloop
  endfacet
  facet normal 0.471396 -0.881921 0
    outer loop
      vertex 0 30.1729 2
      vertex 1.00694 30.7112 4
      vertex 0 30.1729 4
    endloop
  endfacet
  facet normal 0.471396 -0.881921 0
    outer loop
      vertex 1.00694 30.7112 4
      vertex 0 30.1729 2
      vertex 1.00694 30.7112 2
    endloop
  endfacet
  facet normal -0.290285 -0.95694 0
    outer loop
      vertex 14.5846 32.0485 2
      vertex 18.9931 30.7112 4
      vertex 14.5846 32.0485 4
    endloop
  endfacet
  facet normal -0.290285 -0.95694 -0
    outer loop
      vertex 18.9931 30.7112 4
      vertex 14.5846 32.0485 2
      vertex 18.9931 30.7112 2
    endloop
  endfacet
  facet normal -0.0980171 -0.995185 0
    outer loop
      vertex 10 32.5 2
      vertex 14.5846 32.0485 4
      vertex 10 32.5 4
    endloop
  endfacet
  facet normal -0.0980171 -0.995185 -0
    outer loop
      vertex 14.5846 32.0485 4
      vertex 10 32.5 2
      vertex 14.5846 32.0485 2
    endloop
  endfacet
  facet normal -0.471398 -0.881921 0
    outer loop
      vertex 18.9931 30.7112 2
      vertex 20 30.1729 4
      vertex 18.9931 30.7112 4
    endloop
  endfacet
  facet normal -0.471398 -0.881921 -0
    outer loop
      vertex 20 30.1729 4
      vertex 18.9931 30.7112 2
      vertex 20 30.1729 2
    endloop
  endfacet
  facet normal 0 0 1
    outer loop
      vertex 10 8.5 2
      vertex 20 30.1729 2
      vertex 18.9931 30.7112 2
    endloop
  endfacet
  facet normal 0 0 1
    outer loop
      vertex 10 8.5 2
      vertex 18.9931 30.7112 2
      vertex 14.5846 32.0485 2
    endloop
  endfacet
  facet normal 0 0 1
    outer loop
      vertex 10 8.5 2
      vertex 14.5846 32.0485 2
      vertex 10 32.5 2
    endloop
  endfacet
  facet normal 0 0 1
    outer loop
      vertex 20 30.1729 2
      vertex 10 8.5 2
      vertex 20 0 2
    endloop
  endfacet
  facet normal -0 0 1
    outer loop
      vertex 5.41538 32.0485 2
      vertex 10 8.5 2
      vertex 10 32.5 2
    endloop
  endfacet
  facet normal -0 0 1
    outer loop
      vertex 1.00694 30.7112 2
      vertex 10 8.5 2
      vertex 5.41538 32.0485 2
    endloop
  endfacet
  facet normal -0 0 1
    outer loop
      vertex 0 30.1729 2
      vertex 10 8.5 2
      vertex 1.00694 30.7112 2
    endloop
  endfacet
  facet normal 0 0 1
    outer loop
      vertex 10 8.5 2
      vertex 0 30.1729 2
      vertex 0 0 2
    endloop
  endfacet
  facet normal 0.290285 -0.95694 0
    outer loop
      vertex 1.00694 30.7112 2
      vertex 5.41538 32.0485 4
      vertex 1.00694 30.7112 4
    endloop
  endfacet
  facet normal 0.290285 -0.95694 0
    outer loop
      vertex 5.41538 32.0485 4
      vertex 1.00694 30.7112 2
      vertex 5.41538 32.0485 2
    endloop
  endfacet
endsolid OpenSCAD_Model
