solid OpenSCAD_Model
  facet normal -1 0 0
    outer loop
      vertex 0 36 0
      vertex 0 30.2349 2
      vertex 0 36 4
    endloop
  endfacet
  facet normal -1 0 0
    outer loop
      vertex 0 0 0
      vertex 0 30.2349 2
      vertex 0 36 0
    endloop
  endfacet
  facet normal -1 -0 0
    outer loop
      vertex 0 30.2349 2
      vertex 0 0 0
      vertex 0 0 2
    endloop
  endfacet
  facet normal -1 -0 0
    outer loop
      vertex 0 36 4
      vertex 0 30.2349 2
      vertex 0 30.2349 4
    endloop
  endfacet
  facet normal 0 0 1
    outer loop
      vertex 20 36 4
      vertex 18.9931 30.7112 4
      vertex 20 30.2349 4
    endloop
  endfacet
  facet normal 0 0 1
    outer loop
      vertex 20 36 4
      vertex 16.8217 31.4881 4
      vertex 18.9931 30.7112 4
    endloop
  endfacet
  facet normal 0 0 1
    outer loop
      vertex 20 36 4
      vertex 14.5846 32.0485 4
      vertex 16.8217 31.4881 4
    endloop
  endfacet
  facet normal 0 0 1
    outer loop
      vertex 20 36 4
      vertex 12.3034 32.3868 4
      vertex 14.5846 32.0485 4
    endloop
  endfacet
  facet normal 0 0 1
    outer loop
      vertex 20 36 4
      vertex 10 32.5 4
      vertex 12.3034 32.3868 4
    endloop
  endfacet
  facet normal -0 0 1
    outer loop
      vertex 0 36 4
      vertex 10 32.5 4
      vertex 20 36 4
    endloop
  endfacet
  facet normal 0 0 1
    outer loop
      vertex 10 32.5 4
      vertex 0 36 4
      vertex 7.6966 32.3868 4
    endloop
  endfacet
  facet normal 0 0 1
    outer loop
      vertex 7.6966 32.3868 4
      vertex 0 36 4
      vertex 5.41538 32.0485 4
    endloop
  endfacet
  facet normal 0 0 1
    outer loop
      vertex 5.41538 32.0485 4
      vertex 0 36 4
      vertex 3.17831 31.4881 4
    endloop
  endfacet
  facet normal 0 0 1
    outer loop
      vertex 0 36 4
      vertex 1.00694 30.7112 4
      vertex 3.17831 31.4881 4
    endloop
  endfacet
  facet normal 0 0 1
    outer loop
      vertex 1.00694 30.7112 4
      vertex 0 36 4
      vertex 0 30.2349 4
    endloop
  endfacet
  facet normal 1 0 0
    outer loop
      vertex 20 30.2349 2
      vertex 20 36 4
      vertex 20 30.2349 4
    endloop
  endfacet
  facet normal 1 0 0
    outer loop
      vertex 20 36 4
      vertex 20 30.2349 2
      vertex 20 36 0
    endloop
  endfacet
  facet normal 1 0 0
    outer loop
      vertex 20 0 0
      vertex 20 30.2349 2
      vertex 20 0 2
    endloop
  endfacet
  facet normal 1 0 0
    outer loop
      vertex 20 30.2349 2
      vertex 20 0 0
      vertex 20 36 0
    endloop
  endfacet
  facet normal 0 1 -0
    outer loop
      vertex 20 36 0
      vertex 0 36 4
      vertex 20 36 4
    endloop
  endfacet
  facet normal 0 1 0
    outer loop
      vertex 0 36 4
      vertex 20 36 0
      vertex 0 36 0
    endloop
  endfacet
  facet normal 0 0 -1
    outer loop
      vertex 10 8.5 0
      vertex 20 36 0
      vertex 20 0 0
    endloop
  endfacet
  facet normal 0 0 -1
    outer loop
      vertex 0 36 0
      vertex 10 8.5 0
      vertex 0 0 0
    endloop
  endfacet
  facet normal 0 0 -1
    outer loop
      vertex 10 8.5 0
      vertex 0 36 0
      vertex 20 36 0
    endloop
  endfacet
  facet normal -0.647648 -0.761939 0
    outer loop
      vertex 10 8.5 0
      vertex 20 0 2
      vertex 10 8.5 2
    endloop
  endfacet
  facet normal -0.647648 -0.761939 -0
    outer loop
      vertex 20 0 2
      vertex 10 8.5 0
      vertex 20 0 0
    endloop
  endfacet
  facet normal 0.647648 -0.761939 0
    outer loop
      vertex 0 0 0
      vertex 10 8.5 2
      vertex 0 0 2
    endloop
  endfacet
  facet normal 0.647648 -0.761939 0
    outer loop
      vertex 10 8.5 2
      vertex 0 0 0
      vertex 10 8.5 0
    endloop
  endfacet
  facet normal 0.0490678 -0.998795 0
    outer loop
      vertex 7.6966 32.3868 2
      vertex 10 32.5 4
      vertex 7.6966 32.3868 4
    endloop
  endfacet
  facet normal 0.0490678 -0.998795 0
    outer loop
      vertex 10 32.5 4
      vertex 7.6966 32.3868 2
      vertex 10 32.5 2
    endloop
  endfacet
  facet normal 0.427555 -0.90399 0
    outer loop
      vertex 0 30.2349 2
      vertex 1.00694 30.7112 4
      vertex 0 30.2349 4
    endloop
  endfacet
  facet normal 0.427555 -0.90399 0
    outer loop
      vertex 1.00694 30.7112 4
      vertex 0 30.2349 2
      vertex 1.00694 30.7112 2
    endloop
  endfacet
  facet normal -0.33689 -0.941544 0
    outer loop
      vertex 16.8217 31.4881 2
      vertex 18.9931 30.7112 4
      vertex 16.8217 31.4881 4
    endloop
  endfacet
  facet normal -0.33689 -0.941544 -0
    outer loop
      vertex 18.9931 30.7112 4
      vertex 16.8217 31.4881 2
      vertex 18.9931 30.7112 2
    endloop
  endfacet
  facet normal 0.24298 -0.970031 0
    outer loop
      vertex 3.17831 31.4881 2
      vertex 5.41538 32.0485 4
      vertex 3.17831 31.4881 4
    endloop
  endfacet
  facet normal 0.24298 -0.970031 0
    outer loop
      vertex 5.41538 32.0485 4
      vertex 3.17831 31.4881 2
      vertex 5.41538 32.0485 2
    endloop
  endfacet
  facet normal -0.14673 -0.989177 0
    outer loop
      vertex 12.3034 32.3868 2
      vertex 14.5846 32.0485 4
      vertex 12.3034 32.3868 4
    endloop
  endfacet
  facet normal -0.14673 -0.989177 -0
    outer loop
      vertex 14.5846 32.0485 4
      vertex 12.3034 32.3868 2
      vertex 14.5846 32.0485 2
    endloop
  endfacet
  facet normal -0.24298 -0.970031 0
    outer loop
      vertex 14.5846 32.0485 2
      vertex 16.8217 31.4881 4
      vertex 14.5846 32.0485 4
    endloop
  endfacet
  facet normal -0.24298 -0.970031 -0
    outer loop
      vertex 16.8217 31.4881 4
      vertex 14.5846 32.0485 2
      vertex 16.8217 31.4881 2
    endloop
  endfacet
  facet normal -0.0490678 -0.998795 0
    outer loop
      vertex 10 32.5 2
      vertex 12.3034 32.3868 4
      vertex 10 32.5 4
    endloop
  endfacet
  facet normal -0.0490678 -0.998795 -0
    outer loop
      vertex 12.3034 32.3868 4
      vertex 10 32.5 2
      vertex 12.3034 32.3868 2
    endloop
  endfacet
  facet normal -0.427556 -0.903989 0
    outer loop
      vertex 18.9931 30.7112 2
      vertex 20 30.2349 4
      vertex 18.9931 30.7112 4
    endloop
  endfacet
  facet normal -0.427556 -0.903989 -0
    outer loop
      vertex 20 30.2349 4
      vertex 18.9931 30.7112 2
      vertex 20 30.2349 2
    endloop
  endfacet
  facet normal 0 0 1
    outer loop
      vertex 10 8.5 2
      vertex 20 30.2349 2
      vertex 18.9931 30.7112 2
    endloop
  endfacet
  facet normal 0 0 1
    outer loop
      vertex 10 8.5 2
      vertex 18.9931 30.7112 2
      vertex 16.8217 31.4881 2
    endloop
  endfacet
  facet normal 0 0 1
    outer loop
      vertex 10 8.5 2
      vertex 16.8217 31.4881 2
      vertex 14.5846 32.0485 2
    endloop
  endfacet
  facet normal 0 0 1
    outer loop
      vertex 10 8.5 2
      vertex 14.5846 32.0485 2
      vertex 12.3034 32.3868 2
    endloop
  endfacet
  facet normal 0 0 1
    outer loop
      vertex 10 8.5 2
      vertex 12.3034 32.3868 2
      vertex 10 32.5 2
    endloop
  endfacet
  facet normal 0 0 1
    outer loop
      vertex 20 30.2349 2
      vertex 10 8.5 2
      vertex 20 0 2
    endloop
  endfacet
  facet normal -0 0 1
    outer loop
      vertex 7.6966 32.3868 2
      vertex 10 8.5 2
      vertex 10 32.5 2
    endloop
  endfacet
  facet normal -0 0 1
    outer loop
      vertex 5.41538 32.0485 2
      vertex 10 8.5 2
      vertex 7.6966 32.3868 2
    endloop
  endfacet
  facet normal -0 0 1
    outer loop
      vertex 3.17831 31.4881 2
      vertex 10 8.5 2
      vertex 5.41538 32.0485 2
    endloop
  endfacet
  facet normal -0 0 1
    outer loop
      vertex 1.00694 30.7112 2
      vertex 10 8.5 2
      vertex 3.17831 31.4881 2
    endloop
  endfacet
  facet normal -0 0 1
    outer loop
      vertex 0 30.2349 2
      vertex 10 8.5 2
      vertex 1.00694 30.7112 2
    endloop
  endfacet
  facet normal 0 0 1
    outer loop
      vertex 10 8.5 2
      vertex 0 30.2349 2
      vertex 0 0 2
    endloop
  endfacet
  facet normal 0.33689 -0.941544 0
    outer loop
      vertex 1.00694 30.7112 2
      vertex 3.17831 31.4881 4
      vertex 1.00694 30.7112 4
    endloop
  endfacet
  facet normal 0.33689 -0.941544 0
    outer loop
      vertex 3.17831 31.4881 4
      vertex 1.00694 30.7112 2
      vertex 3.17831 31.4881 2
    endloop
  endfacet
  facet normal 0.14673 -0.989177 0
    outer loop
      vertex 5.41538 32.0485 2
      vertex 7.6966 32.3868 4
      vertex 5.41538 32.0485 4
    endloop
  endfacet
  facet normal 0.14673 -0.989177 0
    outer loop
      vertex 7.6966 32.3868 4
      vertex 5.41538 32.0485 2
      vertex 7.6966 32.3868 2
    endloop
  endfacet
endsolid OpenSCAD_Model
