solid OpenSCAD_Model
  facet normal 0.995185 0.0980171 0
    outer loop
      vertex 6 0 2
      vertex 5.88471 1.17054 0
      vertex 5.88471 1.17054 2
    endloop
  endfacet
  facet normal 0.995185 0.0980171 0
    outer loop
      vertex 5.88471 1.17054 0
      vertex 6 0 2
      vertex 6 0 0
    endloop
  endfacet
  facet normal 0.95694 0.290285 0
    outer loop
      vertex 5.88471 1.17054 2
      vertex 5.54328 2.2961 0
      vertex 5.54328 2.2961 2
    endloop
  endfacet
  facet normal 0.95694 0.290285 0
    outer loop
      vertex 5.54328 2.2961 0
      vertex 5.88471 1.17054 2
      vertex 5.88471 1.17054 0
    endloop
  endfacet
  facet normal 0.881921 0.471397 0
    outer loop
      vertex 5.54328 2.2961 2
      vertex 4.98882 3.33342 0
      vertex 4.98882 3.33342 2
    endloop
  endfacet
  facet normal 0.881921 0.471397 0
    outer loop
      vertex 4.98882 3.33342 0
      vertex 5.54328 2.2961 2
      vertex 5.54328 2.2961 0
    endloop
  endfacet
  facet normal 0.77301 0.634394 0
    outer loop
      vertex 4.98882 3.33342 2
      vertex 4.24264 4.24264 0
      vertex 4.24264 4.24264 2
    endloop
  endfacet
  facet normal 0.77301 0.634394 0
    outer loop
      vertex 4.24264 4.24264 0
      vertex 4.98882 3.33342 2
      vertex 4.98882 3.33342 0
    endloop
  endfacet
  facet normal 0.634394 0.77301 -0
    outer loop
      vertex 4.24264 4.24264 0
      vertex 3.33342 4.98882 2
      vertex 4.24264 4.24264 2
    endloop
  endfacet
  facet normal 0.634394 0.77301 0
    outer loop
      vertex 3.33342 4.98882 2
      vertex 4.24264 4.24264 0
      vertex 3.33342 4.98882 0
    endloop
  endfacet
  facet normal 0.471397 0.881921 -0
    outer loop
      vertex 3.33342 4.98882 0
      vertex 2.2961 5.54328 2
      vertex 3.33342 4.98882 2
    endloop
  endfacet
  facet normal 0.471397 0.881921 0
    outer loop
      vertex 2.2961 5.54328 2
      vertex 3.33342 4.98882 0
      vertex 2.2961 5.54328 0
    endloop
  endfacet
  facet normal 0.290285 0.95694 -0
    outer loop
      vertex 2.2961 5.54328 0
      vertex 1.17054 5.88471 2
      vertex 2.2961 5.54328 2
    endloop
  endfacet
  facet normal 0.290285 0.95694 0
    outer loop
      vertex 1.17054 5.88471 2
      vertex 2.2961 5.54328 0
      vertex 1.17054 5.88471 0
    endloop
  endfacet
  facet normal 0.0980171 0.995185 -0
    outer loop
      vertex 1.17054 5.88471 0
      vertex 3.67382e-016 6 2
      vertex 1.17054 5.88471 2
    endloop
  endfacet
  facet normal 0.0980171 0.995185 0
    outer loop
      vertex 3.67382e-016 6 2
      vertex 1.17054 5.88471 0
      vertex 3.67382e-016 6 0
    endloop
  endfacet
  facet normal -0.0980171 0.995185 0
    outer loop
      vertex 3.67382e-016 6 0
      vertex -1.17054 5.88471 2
      vertex 3.67382e-016 6 2
    endloop
  endfacet
  facet normal -0.0980171 0.995185 0
    outer loop
      vertex -1.17054 5.88471 2
      vertex 3.67382e-016 6 0
      vertex -1.17054 5.88471 0
    endloop
  endfacet
  facet normal -0.290285 0.95694 0
    outer loop
      vertex -1.17054 5.88471 0
      vertex -2.2961 5.54328 2
      vertex -1.17054 5.88471 2
    endloop
  endfacet
  facet normal -0.290285 0.95694 0
    outer loop
      vertex -2.2961 5.54328 2
      vertex -1.17054 5.88471 0
      vertex -2.2961 5.54328 0
    endloop
  endfacet
  facet normal -0.471397 0.881921 0
    outer loop
      vertex -2.2961 5.54328 0
      vertex -3.33342 4.98882 2
      vertex -2.2961 5.54328 2
    endloop
  endfacet
  facet normal -0.471397 0.881921 0
    outer loop
      vertex -3.33342 4.98882 2
      vertex -2.2961 5.54328 0
      vertex -3.33342 4.98882 0
    endloop
  endfacet
  facet normal -0.634394 0.77301 0
    outer loop
      vertex -3.33342 4.98882 0
      vertex -4.24264 4.24264 2
      vertex -3.33342 4.98882 2
    endloop
  endfacet
  facet normal -0.634394 0.77301 0
    outer loop
      vertex -4.24264 4.24264 2
      vertex -3.33342 4.98882 0
      vertex -4.24264 4.24264 0
    endloop
  endfacet
  facet normal -0.77301 0.634394 0
    outer loop
      vertex -4.98882 3.33342 0
      vertex -4.24264 4.24264 2
      vertex -4.24264 4.24264 0
    endloop
  endfacet
  facet normal -0.77301 0.634394 0
    outer loop
      vertex -4.24264 4.24264 2
      vertex -4.98882 3.33342 0
      vertex -4.98882 3.33342 2
    endloop
  endfacet
  facet normal -0.881921 0.471397 0
    outer loop
      vertex -5.54328 2.2961 0
      vertex -4.98882 3.33342 2
      vertex -4.98882 3.33342 0
    endloop
  endfacet
  facet normal -0.881921 0.471397 0
    outer loop
      vertex -4.98882 3.33342 2
      vertex -5.54328 2.2961 0
      vertex -5.54328 2.2961 2
    endloop
  endfacet
  facet normal -0.95694 0.290285 0
    outer loop
      vertex -5.88471 1.17054 0
      vertex -5.54328 2.2961 2
      vertex -5.54328 2.2961 0
    endloop
  endfacet
  facet normal -0.95694 0.290285 0
    outer loop
      vertex -5.54328 2.2961 2
      vertex -5.88471 1.17054 0
      vertex -5.88471 1.17054 2
    endloop
  endfacet
  facet normal -0.995185 0.0980171 0
    outer loop
      vertex -6 7.34764e-016 0
      vertex -5.88471 1.17054 2
      vertex -5.88471 1.17054 0
    endloop
  endfacet
  facet normal -0.995185 0.0980171 0
    outer loop
      vertex -5.88471 1.17054 2
      vertex -6 7.34764e-016 0
      vertex -6 7.34764e-016 2
    endloop
  endfacet
  facet normal -0.995185 -0.0980171 0
    outer loop
      vertex -5.88471 -1.17054 0
      vertex -6 7.34764e-016 2
      vertex -6 7.34764e-016 0
    endloop
  endfacet
  facet normal -0.995185 -0.0980171 0
    outer loop
      vertex -6 7.34764e-016 2
      vertex -5.88471 -1.17054 0
      vertex -5.88471 -1.17054 2
    endloop
  endfacet
  facet normal -0.95694 -0.290285 0
    outer loop
      vertex -5.54328 -2.2961 0
      vertex -5.88471 -1.17054 2
      vertex -5.88471 -1.17054 0
    endloop
  endfacet
  facet normal -0.95694 -0.290285 0
    outer loop
      vertex -5.88471 -1.17054 2
      vertex -5.54328 -2.2961 0
      vertex -5.54328 -2.2961 2
    endloop
  endfacet
  facet normal -0.881921 -0.471397 0
    outer loop
      vertex -4.98882 -3.33342 0
      vertex -5.54328 -2.2961 2
      vertex -5.54328 -2.2961 0
    endloop
  endfacet
  facet normal -0.881921 -0.471397 0
    outer loop
      vertex -5.54328 -2.2961 2
      vertex -4.98882 -3.33342 0
      vertex -4.98882 -3.33342 2
    endloop
  endfacet
  facet normal -0.77301 -0.634394 0
    outer loop
      vertex -4.24264 -4.24264 0
      vertex -4.98882 -3.33342 2
      vertex -4.98882 -3.33342 0
    endloop
  endfacet
  facet normal -0.77301 -0.634394 0
    outer loop
      vertex -4.98882 -3.33342 2
      vertex -4.24264 -4.24264 0
      vertex -4.24264 -4.24264 2
    endloop
  endfacet
  facet normal -0.634394 -0.77301 0
    outer loop
      vertex -4.24264 -4.24264 0
      vertex -3.33342 -4.98882 2
      vertex -4.24264 -4.24264 2
    endloop
  endfacet
  facet normal -0.634394 -0.77301 -0
    outer loop
      vertex -3.33342 -4.98882 2
      vertex -4.24264 -4.24264 0
      vertex -3.33342 -4.98882 0
    endloop
  endfacet
  facet normal -0.471397 -0.881921 0
    outer loop
      vertex -3.33342 -4.98882 0
      vertex -2.2961 -5.54328 2
      vertex -3.33342 -4.98882 2
    endloop
  endfacet
  facet normal -0.471397 -0.881921 -0
    outer loop
      vertex -2.2961 -5.54328 2
      vertex -3.33342 -4.98882 0
      vertex -2.2961 -5.54328 0
    endloop
  endfacet
  facet normal -0.290285 -0.95694 0
    outer loop
      vertex -2.2961 -5.54328 0
      vertex -1.17054 -5.88471 2
      vertex -2.2961 -5.54328 2
    endloop
  endfacet
  facet normal -0.290285 -0.95694 -0
    outer loop
      vertex -1.17054 -5.88471 2
      vertex -2.2961 -5.54328 0
      vertex -1.17054 -5.88471 0
    endloop
  endfacet
  facet normal -0.0980171 -0.995185 0
    outer loop
      vertex -1.17054 -5.88471 0
      vertex -1.10215e-015 -6 2
      vertex -1.17054 -5.88471 2
    endloop
  endfacet
  facet normal -0.0980171 -0.995185 -0
    outer loop
      vertex -1.10215e-015 -6 2
      vertex -1.17054 -5.88471 0
      vertex -1.10215e-015 -6 0
    endloop
  endfacet
  facet normal 0.0980171 -0.995185 0
    outer loop
      vertex -1.10215e-015 -6 0
      vertex 1.17054 -5.88471 2
      vertex -1.10215e-015 -6 2
    endloop
  endfacet
  facet normal 0.0980171 -0.995185 0
    outer loop
      vertex 1.17054 -5.88471 2
      vertex -1.10215e-015 -6 0
      vertex 1.17054 -5.88471 0
    endloop
  endfacet
  facet normal 0.290285 -0.95694 0
    outer loop
      vertex 1.17054 -5.88471 0
      vertex 2.2961 -5.54328 2
      vertex 1.17054 -5.88471 2
    endloop
  endfacet
  facet normal 0.290285 -0.95694 0
    outer loop
      vertex 2.2961 -5.54328 2
      vertex 1.17054 -5.88471 0
      vertex 2.2961 -5.54328 0
    endloop
  endfacet
  facet normal 0.471397 -0.881921 0
    outer loop
      vertex 2.2961 -5.54328 0
      vertex 3.33342 -4.98882 2
      vertex 2.2961 -5.54328 2
    endloop
  endfacet
  facet normal 0.471397 -0.881921 0
    outer loop
      vertex 3.33342 -4.98882 2
      vertex 2.2961 -5.54328 0
      vertex 3.33342 -4.98882 0
    endloop
  endfacet
  facet normal 0.634394 -0.77301 0
    outer loop
      vertex 3.33342 -4.98882 0
      vertex 4.24264 -4.24264 2
      vertex 3.33342 -4.98882 2
    endloop
  endfacet
  facet normal 0.634394 -0.77301 0
    outer loop
      vertex 4.24264 -4.24264 2
      vertex 3.33342 -4.98882 0
      vertex 4.24264 -4.24264 0
    endloop
  endfacet
  facet normal 0.77301 -0.634394 0
    outer loop
      vertex 4.24264 -4.24264 2
      vertex 4.98882 -3.33342 0
      vertex 4.98882 -3.33342 2
    endloop
  endfacet
  facet normal 0.77301 -0.634394 0
    outer loop
      vertex 4.98882 -3.33342 0
      vertex 4.24264 -4.24264 2
      vertex 4.24264 -4.24264 0
    endloop
  endfacet
  facet normal 0.881921 -0.471397 0
    outer loop
      vertex 4.98882 -3.33342 2
      vertex 5.54328 -2.2961 0
      vertex 5.54328 -2.2961 2
    endloop
  endfacet
  facet normal 0.881921 -0.471397 0
    outer loop
      vertex 5.54328 -2.2961 0
      vertex 4.98882 -3.33342 2
      vertex 4.98882 -3.33342 0
    endloop
  endfacet
  facet normal 0.95694 -0.290285 0
    outer loop
      vertex 5.54328 -2.2961 2
      vertex 5.88471 -1.17054 0
      vertex 5.88471 -1.17054 2
    endloop
  endfacet
  facet normal 0.95694 -0.290285 0
    outer loop
      vertex 5.88471 -1.17054 0
      vertex 5.54328 -2.2961 2
      vertex 5.54328 -2.2961 0
    endloop
  endfacet
  facet normal 0.995185 -0.0980171 0
    outer loop
      vertex 5.88471 -1.17054 2
      vertex 6 0 0
      vertex 6 0 2
    endloop
  endfacet
  facet normal 0.995185 -0.0980171 0
    outer loop
      vertex 6 0 0
      vertex 5.88471 -1.17054 2
      vertex 5.88471 -1.17054 0
    endloop
  endfacet
  facet normal 0 0 -1
    outer loop
      vertex 5.88471 -1.17054 0
      vertex 5.88471 1.17054 0
      vertex 6 0 0
    endloop
  endfacet
  facet normal 0 0 -1
    outer loop
      vertex 5.54328 -2.2961 0
      vertex 5.88471 1.17054 0
      vertex 5.88471 -1.17054 0
    endloop
  endfacet
  facet normal 0 0 -1
    outer loop
      vertex 5.54328 -2.2961 0
      vertex 5.54328 2.2961 0
      vertex 5.88471 1.17054 0
    endloop
  endfacet
  facet normal 0 0 -1
    outer loop
      vertex 4.98882 -3.33342 0
      vertex 5.54328 2.2961 0
      vertex 5.54328 -2.2961 0
    endloop
  endfacet
  facet normal 0 0 -1
    outer loop
      vertex 4.98882 -3.33342 0
      vertex 4.98882 3.33342 0
      vertex 5.54328 2.2961 0
    endloop
  endfacet
  facet normal 0 0 -1
    outer loop
      vertex 4.24264 -4.24264 0
      vertex 4.98882 3.33342 0
      vertex 4.98882 -3.33342 0
    endloop
  endfacet
  facet normal 0 0 -1
    outer loop
      vertex 4.24264 -4.24264 0
      vertex 4.24264 4.24264 0
      vertex 4.98882 3.33342 0
    endloop
  endfacet
  facet normal 0 0 -1
    outer loop
      vertex 3.33342 -4.98882 0
      vertex 4.24264 4.24264 0
      vertex 4.24264 -4.24264 0
    endloop
  endfacet
  facet normal 0 0 -1
    outer loop
      vertex 3.33342 -4.98882 0
      vertex 3.33342 4.98882 0
      vertex 4.24264 4.24264 0
    endloop
  endfacet
  facet normal 0 0 -1
    outer loop
      vertex 2.2961 -5.54328 0
      vertex 3.33342 4.98882 0
      vertex 3.33342 -4.98882 0
    endloop
  endfacet
  facet normal 0 0 -1
    outer loop
      vertex 2.2961 -5.54328 0
      vertex 2.2961 5.54328 0
      vertex 3.33342 4.98882 0
    endloop
  endfacet
  facet normal 0 0 -1
    outer loop
      vertex 1.17054 -5.88471 0
      vertex 2.2961 5.54328 0
      vertex 2.2961 -5.54328 0
    endloop
  endfacet
  facet normal 0 0 -1
    outer loop
      vertex 1.17054 -5.88471 0
      vertex 1.17054 5.88471 0
      vertex 2.2961 5.54328 0
    endloop
  endfacet
  facet normal 0 0 -1
    outer loop
      vertex 1.17054 -5.88471 0
      vertex 3.67382e-016 6 0
      vertex 1.17054 5.88471 0
    endloop
  endfacet
  facet normal 0 0 -1
    outer loop
      vertex -1.10215e-015 -6 0
      vertex 3.67382e-016 6 0
      vertex 1.17054 -5.88471 0
    endloop
  endfacet
  facet normal 0 0 -1
    outer loop
      vertex -1.17054 -5.88471 0
      vertex 3.67382e-016 6 0
      vertex -1.10215e-015 -6 0
    endloop
  endfacet
  facet normal 0 0 -1
    outer loop
      vertex -1.17054 -5.88471 0
      vertex -1.17054 5.88471 0
      vertex 3.67382e-016 6 0
    endloop
  endfacet
  facet normal 0 0 -1
    outer loop
      vertex -2.2961 -5.54328 0
      vertex -1.17054 5.88471 0
      vertex -1.17054 -5.88471 0
    endloop
  endfacet
  facet normal 0 0 -1
    outer loop
      vertex -2.2961 -5.54328 0
      vertex -2.2961 5.54328 0
      vertex -1.17054 5.88471 0
    endloop
  endfacet
  facet normal 0 0 -1
    outer loop
      vertex -3.33342 -4.98882 0
      vertex -2.2961 5.54328 0
      vertex -2.2961 -5.54328 0
    endloop
  endfacet
  facet normal 0 0 -1
    outer loop
      vertex -3.33342 -4.98882 0
      vertex -3.33342 4.98882 0
      vertex -2.2961 5.54328 0
    endloop
  endfacet
  facet normal 0 0 -1
    outer loop
      vertex -4.24264 -4.24264 0
      vertex -3.33342 4.98882 0
      vertex -3.33342 -4.98882 0
    endloop
  endfacet
  facet normal 0 0 -1
    outer loop
      vertex -4.24264 -4.24264 0
      vertex -4.24264 4.24264 0
      vertex -3.33342 4.98882 0
    endloop
  endfacet
  facet normal 0 0 -1
    outer loop
      vertex -4.98882 -3.33342 0
      vertex -4.24264 4.24264 0
      vertex -4.24264 -4.24264 0
    endloop
  endfacet
  facet normal 0 0 -1
    outer loop
      vertex -4.98882 -3.33342 0
      vertex -4.98882 3.33342 0
      vertex -4.24264 4.24264 0
    endloop
  endfacet
  facet normal 0 0 -1
    outer loop
      vertex -5.54328 -2.2961 0
      vertex -4.98882 3.33342 0
      vertex -4.98882 -3.33342 0
    endloop
  endfacet
  facet normal 0 0 -1
    outer loop
      vertex -5.54328 -2.2961 0
      vertex -5.54328 2.2961 0
      vertex -4.98882 3.33342 0
    endloop
  endfacet
  facet normal 0 0 -1
    outer loop
      vertex -5.88471 -1.17054 0
      vertex -5.54328 2.2961 0
      vertex -5.54328 -2.2961 0
    endloop
  endfacet
  facet normal 0 0 -1
    outer loop
      vertex -5.88471 -1.17054 0
      vertex -5.88471 1.17054 0
      vertex -5.54328 2.2961 0
    endloop
  endfacet
  facet normal 0 -0 -1
    outer loop
      vertex -5.88471 1.17054 0
      vertex -5.88471 -1.17054 0
      vertex -6 7.34764e-016 0
    endloop
  endfacet
  facet normal 0 0 1
    outer loop
      vertex 5.88471 1.17054 2
      vertex 5.88471 -1.17054 2
      vertex 6 0 2
    endloop
  endfacet
  facet normal 0 0 1
    outer loop
      vertex 5.54328 2.2961 2
      vertex 5.88471 -1.17054 2
      vertex 5.88471 1.17054 2
    endloop
  endfacet
  facet normal 0 0 1
    outer loop
      vertex 5.54328 2.2961 2
      vertex 5.54328 -2.2961 2
      vertex 5.88471 -1.17054 2
    endloop
  endfacet
  facet normal 0 0 1
    outer loop
      vertex 4.98882 3.33342 2
      vertex 5.54328 -2.2961 2
      vertex 5.54328 2.2961 2
    endloop
  endfacet
  facet normal 0 0 1
    outer loop
      vertex 4.98882 3.33342 2
      vertex 4.98882 -3.33342 2
      vertex 5.54328 -2.2961 2
    endloop
  endfacet
  facet normal 0 0 1
    outer loop
      vertex 4.24264 4.24264 2
      vertex 4.98882 -3.33342 2
      vertex 4.98882 3.33342 2
    endloop
  endfacet
  facet normal 0 0 1
    outer loop
      vertex 4.24264 4.24264 2
      vertex 4.24264 -4.24264 2
      vertex 4.98882 -3.33342 2
    endloop
  endfacet
  facet normal 0 0 1
    outer loop
      vertex 3.33342 4.98882 2
      vertex 4.24264 -4.24264 2
      vertex 4.24264 4.24264 2
    endloop
  endfacet
  facet normal 0 0 1
    outer loop
      vertex 3.33342 4.98882 2
      vertex 3.33342 -4.98882 2
      vertex 4.24264 -4.24264 2
    endloop
  endfacet
  facet normal 0 0 1
    outer loop
      vertex 2.2961 5.54328 2
      vertex 3.33342 -4.98882 2
      vertex 3.33342 4.98882 2
    endloop
  endfacet
  facet normal 0 0 1
    outer loop
      vertex 2.2961 5.54328 2
      vertex 2.2961 -5.54328 2
      vertex 3.33342 -4.98882 2
    endloop
  endfacet
  facet normal 0 0 1
    outer loop
      vertex 1.17054 5.88471 2
      vertex 2.2961 -5.54328 2
      vertex 2.2961 5.54328 2
    endloop
  endfacet
  facet normal 0 0 1
    outer loop
      vertex 1.17054 5.88471 2
      vertex 1.17054 -5.88471 2
      vertex 2.2961 -5.54328 2
    endloop
  endfacet
  facet normal 0 0 1
    outer loop
      vertex 3.67382e-016 6 2
      vertex 1.17054 -5.88471 2
      vertex 1.17054 5.88471 2
    endloop
  endfacet
  facet normal 0 0 1
    outer loop
      vertex 3.67382e-016 6 2
      vertex -1.10215e-015 -6 2
      vertex 1.17054 -5.88471 2
    endloop
  endfacet
  facet normal -0 0 1
    outer loop
      vertex -1.17054 5.88471 2
      vertex -1.10215e-015 -6 2
      vertex 3.67382e-016 6 2
    endloop
  endfacet
  facet normal 0 0 1
    outer loop
      vertex -1.17054 5.88471 2
      vertex -1.17054 -5.88471 2
      vertex -1.10215e-015 -6 2
    endloop
  endfacet
  facet normal -0 0 1
    outer loop
      vertex -2.2961 5.54328 2
      vertex -1.17054 -5.88471 2
      vertex -1.17054 5.88471 2
    endloop
  endfacet
  facet normal 0 0 1
    outer loop
      vertex -2.2961 5.54328 2
      vertex -2.2961 -5.54328 2
      vertex -1.17054 -5.88471 2
    endloop
  endfacet
  facet normal -0 0 1
    outer loop
      vertex -3.33342 4.98882 2
      vertex -2.2961 -5.54328 2
      vertex -2.2961 5.54328 2
    endloop
  endfacet
  facet normal 0 0 1
    outer loop
      vertex -3.33342 4.98882 2
      vertex -3.33342 -4.98882 2
      vertex -2.2961 -5.54328 2
    endloop
  endfacet
  facet normal -0 0 1
    outer loop
      vertex -4.24264 4.24264 2
      vertex -3.33342 -4.98882 2
      vertex -3.33342 4.98882 2
    endloop
  endfacet
  facet normal 0 0 1
    outer loop
      vertex -4.24264 4.24264 2
      vertex -4.24264 -4.24264 2
      vertex -3.33342 -4.98882 2
    endloop
  endfacet
  facet normal -0 0 1
    outer loop
      vertex -4.98882 3.33342 2
      vertex -4.24264 -4.24264 2
      vertex -4.24264 4.24264 2
    endloop
  endfacet
  facet normal 0 0 1
    outer loop
      vertex -4.98882 3.33342 2
      vertex -4.98882 -3.33342 2
      vertex -4.24264 -4.24264 2
    endloop
  endfacet
  facet normal -0 0 1
    outer loop
      vertex -5.54328 2.2961 2
      vertex -4.98882 -3.33342 2
      vertex -4.98882 3.33342 2
    endloop
  endfacet
  facet normal 0 0 1
    outer loop
      vertex -5.54328 2.2961 2
      vertex -5.54328 -2.2961 2
      vertex -4.98882 -3.33342 2
    endloop
  endfacet
  facet normal -0 0 1
    outer loop
      vertex -5.88471 1.17054 2
      vertex -5.54328 -2.2961 2
      vertex -5.54328 2.2961 2
    endloop
  endfacet
  facet normal 0 0 1
    outer loop
      vertex -5.88471 1.17054 2
      vertex -5.88471 -1.17054 2
      vertex -5.54328 -2.2961 2
    endloop
  endfacet
  facet normal 0 -0 1
    outer loop
      vertex -5.88471 -1.17054 2
      vertex -5.88471 1.17054 2
      vertex -6 7.34764e-016 2
    endloop
  endfacet
endsolid OpenSCAD_Model
