solid OpenSCAD_Model
  facet normal -1 0 0
    outer loop
      vertex 0 35.5 0
      vertex 0 30.0479 2
      vertex 0 35.5 4
    endloop
  endfacet
  facet normal -1 0 0
    outer loop
      vertex 0 8.18804e-007 0
      vertex 0 30.0479 2
      vertex 0 35.5 0
    endloop
  endfacet
  facet normal -1 -0 0
    outer loop
      vertex 0 30.0479 2
      vertex 0 8.18804e-007 0
      vertex 0 8.18804e-007 2
    endloop
  endfacet
  facet normal -1 -0 0
    outer loop
      vertex 0 35.5 4
      vertex 0 30.0479 2
      vertex 0 30.0479 4
    endloop
  endfacet
  facet normal 0 0 1
    outer loop
      vertex 20 35.5 4
      vertex 18.9931 30.5862 4
      vertex 20 30.0479 4
    endloop
  endfacet
  facet normal 0 0 1
    outer loop
      vertex 20 35.5 4
      vertex 14.5846 31.9235 4
      vertex 18.9931 30.5862 4
    endloop
  endfacet
  facet normal 0 0 1
    outer loop
      vertex 20 35.5 4
      vertex 10 32.375 4
      vertex 14.5846 31.9235 4
    endloop
  endfacet
  facet normal -0 0 1
    outer loop
      vertex 0 35.5 4
      vertex 10 32.375 4
      vertex 20 35.5 4
    endloop
  endfacet
  facet normal 0 0 1
    outer loop
      vertex 10 32.375 4
      vertex 0 35.5 4
      vertex 5.41538 31.9235 4
    endloop
  endfacet
  facet normal 0 0 1
    outer loop
      vertex 0 35.5 4
      vertex 1.00694 30.5862 4
      vertex 5.41538 31.9235 4
    endloop
  endfacet
  facet normal 0 0 1
    outer loop
      vertex 1.00694 30.5862 4
      vertex 0 35.5 4
      vertex 0 30.0479 4
    endloop
  endfacet
  facet normal 1 0 0
    outer loop
      vertex 20 30.0479 2
      vertex 20 35.5 4
      vertex 20 30.0479 4
    endloop
  endfacet
  facet normal 1 0 0
    outer loop
      vertex 20 35.5 4
      vertex 20 30.0479 2
      vertex 20 35.5 0
    endloop
  endfacet
  facet normal 1 0 0
    outer loop
      vertex 20 0 0
      vertex 20 30.0479 2
      vertex 20 0 2
    endloop
  endfacet
  facet normal 1 0 0
    outer loop
      vertex 20 30.0479 2
      vertex 20 0 0
      vertex 20 35.5 0
    endloop
  endfacet
  facet normal 0 1 -0
    outer loop
      vertex 20 35.5 0
      vertex 0 35.5 4
      vertex 20 35.5 4
    endloop
  endfacet
  facet normal 0 1 0
    outer loop
      vertex 0 35.5 4
      vertex 20 35.5 0
      vertex 0 35.5 0
    endloop
  endfacet
  facet normal 0 0 -1
    outer loop
      vertex 10 10 0
      vertex 20 35.5 0
      vertex 20 0 0
    endloop
  endfacet
  facet normal 0 0 -1
    outer loop
      vertex 0 35.5 0
      vertex 10 10 0
      vertex 0 8.18804e-007 0
    endloop
  endfacet
  facet normal 0 0 -1
    outer loop
      vertex 10 10 0
      vertex 0 35.5 0
      vertex 20 35.5 0
    endloop
  endfacet
  facet normal -0.707107 -0.707107 0
    outer loop
      vertex 10 10 0
      vertex 20 0 2
      vertex 10 10 2
    endloop
  endfacet
  facet normal -0.707107 -0.707107 -0
    outer loop
      vertex 20 0 2
      vertex 10 10 0
      vertex 20 0 0
    endloop
  endfacet
  facet normal 0.707107 -0.707107 0
    outer loop
      vertex 0 8.18804e-007 2
      vertex 10 10 0
      vertex 10 10 2
    endloop
  endfacet
  facet normal 0.707107 -0.707107 0
    outer loop
      vertex 10 10 0
      vertex 0 8.18804e-007 2
      vertex 0 8.18804e-007 0
    endloop
  endfacet
  facet normal 0 0 1
    outer loop
      vertex 10 10 2
      vertex 20 30.0479 2
      vertex 18.9931 30.5862 2
    endloop
  endfacet
  facet normal 0 0 1
    outer loop
      vertex 10 10 2
      vertex 18.9931 30.5862 2
      vertex 14.5846 31.9235 2
    endloop
  endfacet
  facet normal 0 0 1
    outer loop
      vertex 10 10 2
      vertex 14.5846 31.9235 2
      vertex 10 32.375 2
    endloop
  endfacet
  facet normal 0 0 1
    outer loop
      vertex 20 30.0479 2
      vertex 10 10 2
      vertex 20 0 2
    endloop
  endfacet
  facet normal -0 0 1
    outer loop
      vertex 5.41538 31.9235 2
      vertex 10 10 2
      vertex 10 32.375 2
    endloop
  endfacet
  facet normal -0 0 1
    outer loop
      vertex 1.00694 30.5862 2
      vertex 10 10 2
      vertex 5.41538 31.9235 2
    endloop
  endfacet
  facet normal -0 0 1
    outer loop
      vertex 0 30.0479 2
      vertex 10 10 2
      vertex 1.00694 30.5862 2
    endloop
  endfacet
  facet normal 0 0 1
    outer loop
      vertex 10 10 2
      vertex 0 30.0479 2
      vertex 0 8.18804e-007 2
    endloop
  endfacet
  facet normal -0.290285 -0.95694 0
    outer loop
      vertex 14.5846 31.9235 2
      vertex 18.9931 30.5862 4
      vertex 14.5846 31.9235 4
    endloop
  endfacet
  facet normal -0.290285 -0.95694 -0
    outer loop
      vertex 18.9931 30.5862 4
      vertex 14.5846 31.9235 2
      vertex 18.9931 30.5862 2
    endloop
  endfacet
  facet normal 0.471396 -0.881921 0
    outer loop
      vertex 0 30.0479 2
      vertex 1.00694 30.5862 4
      vertex 0 30.0479 4
    endloop
  endfacet
  facet normal 0.471396 -0.881921 0
    outer loop
      vertex 1.00694 30.5862 4
      vertex 0 30.0479 2
      vertex 1.00694 30.5862 2
    endloop
  endfacet
  facet normal 0.0980171 -0.995185 0
    outer loop
      vertex 5.41538 31.9235 2
      vertex 10 32.375 4
      vertex 5.41538 31.9235 4
    endloop
  endfacet
  facet normal 0.0980171 -0.995185 0
    outer loop
      vertex 10 32.375 4
      vertex 5.41538 31.9235 2
      vertex 10 32.375 2
    endloop
  endfacet
  facet normal -0.471398 -0.881921 0
    outer loop
      vertex 18.9931 30.5862 2
      vertex 20 30.0479 4
      vertex 18.9931 30.5862 4
    endloop
  endfacet
  facet normal -0.471398 -0.881921 -0
    outer loop
      vertex 20 30.0479 4
      vertex 18.9931 30.5862 2
      vertex 20 30.0479 2
    endloop
  endfacet
  facet normal 0.290285 -0.95694 0
    outer loop
      vertex 1.00694 30.5862 2
      vertex 5.41538 31.9235 4
      vertex 1.00694 30.5862 4
    endloop
  endfacet
  facet normal 0.290285 -0.95694 0
    outer loop
      vertex 5.41538 31.9235 4
      vertex 1.00694 30.5862 2
      vertex 5.41538 31.9235 2
    endloop
  endfacet
  facet normal -0.0980171 -0.995185 0
    outer loop
      vertex 10 32.375 2
      vertex 14.5846 31.9235 4
      vertex 10 32.375 4
    endloop
  endfacet
  facet normal -0.0980171 -0.995185 -0
    outer loop
      vertex 14.5846 31.9235 4
      vertex 10 32.375 2
      vertex 14.5846 31.9235 2
    endloop
  endfacet
endsolid OpenSCAD_Model
